0
SECTION
2
HEADER
9
$INSUNITS
70
4
9
$ACADVER
1
AC1014
9
$HANDSEED
5
FFFF
0
ENDSEC
0
SECTION
2
TABLES
0
TABLE
2
VPORT
5
8
100
AcDbSymbolTable
0
ENDTAB
0
TABLE
2
LTYPE
5
5
100
AcDbSymbolTable
0
LTYPE
5
14
100
AcDbSymbolTableRecord
100
AcDbLinetypeTableRecord
2
BYBLOCK
70
0
0
LTYPE
5
15
100
AcDbSymbolTableRecord
100
AcDbLinetypeTableRecord
2
BYLAYER
70
0
0
ENDTAB
0
TABLE
2
LAYER
5
2
100
AcDbSymbolTable
70
2
0
LAYER
5
50
100
AcDbSymbolTableRecord
100
AcDbLayerTableRecord
2
0
70
0
6
CONTINUOUS
0
ENDTAB
0
TABLE
2
STYLE
5
3
100
AcDbSymbolTable
70
1
0
STYLE
5
11
100
AcDbSymbolTableRecord
100
AcDbTextStyleTableRecord
2
STANDARD
70
0
0
ENDTAB
0
TABLE
2
VIEW
5
6
100
AcDbSymbolTable
70
0
0
ENDTAB
0
TABLE
2
UCS
5
7
100
AcDbSymbolTable
70
0
0
ENDTAB
0
TABLE
2
APPID
5
9
100
AcDbSymbolTable
70
2
0
APPID
5
12
100
AcDbSymbolTableRecord
100
AcDbRegAppTableRecord
2
ACAD
70
0
0
ENDTAB
0
TABLE
2
DIMSTYLE
5
A
100
AcDbSymbolTable
70
1
0
ENDTAB
0
TABLE
2
BLOCK_RECORD
5
1
100
AcDbSymbolTable
70
1
0
BLOCK_RECORD
5
1F
100
AcDbSymbolTableRecord
100
AcDbBlockTableRecord
2
*MODEL_SPACE
0
BLOCK_RECORD
5
1B
100
AcDbSymbolTableRecord
100
AcDbBlockTableRecord
2
*PAPER_SPACE
0
ENDTAB
0
ENDSEC
0
SECTION
2
BLOCKS
0
BLOCK
5
20
100
AcDbEntity
100
AcDbBlockBegin
2
*MODEL_SPACE
0
ENDBLK
5
21
100
AcDbEntity
100
AcDbBlockEnd
0
BLOCK
5
1C
100
AcDbEntity
100
AcDbBlockBegin
2
*PAPER_SPACE
0
ENDBLK
5
1D
100
AcDbEntity
100
AcDbBlockEnd
0
ENDSEC
0
SECTION
2
ENTITIES
0
LWPOLYLINE
5
100
100
AcDbEntity
8
0
100
AcDbPolyline
90
3
70
1
43
0.0
10
-34.431712322698864
20
75.365168126278888
10
-29.706352780020062
20
70.639808583600058
10
-24.980993237341245
20
75.365168126278888
0
LWPOLYLINE
5
101
100
AcDbEntity
8
0
100
AcDbPolyline
90
3
70
1
43
0.0
10
-24.93839773865809
20
105.11248417344235
10
-29.706352780020012
20
109.88043921480428
10
-34.474307821381956
20
105.11248417344235
0
LWPOLYLINE
5
102
100
AcDbEntity
8
0
100
AcDbPolyline
90
3
70
1
43
0.0
10
-36.888521419729614
20
104.11248415854119
10
-43.847003603402058
20
104.11248415854121
10
-43.847003603402079
20
97.15400197486872
0
LWPOLYLINE
5
103
100
AcDbEntity
8
0
100
AcDbPolyline
90
3
70
1
43
0.0
10
-16.099687586041
20
82.832260194132616
10
-22.566779638993573
20
76.36516814118005
10
-16.099687586041007
20
76.365168141180035
0
LWPOLYLINE
5
104
100
AcDbEntity
8
0
100
AcDbPolyline
90
3
70
1
43
0.0
10
-43.847003603402101
20
83.366245823535593
10
-43.847003603402108
20
76.365168141180035
10
-36.845925921046543
20
76.36516814118005
0
LWPOLYLINE
5
105
100
AcDbEntity
8
0
100
AcDbPolyline
90
3
70
1
43
0.0
10
-16.099687586040972
20
97.687987604271711
10
-16.099687586040965
20
104.11248415854119
10
-22.524184140310428
20
104.11248415854119
0
LWPOLYLINE
5
106
100
AcDbEntity
8
0
100
AcDbPolyline
90
8
70
1
43
0.0
10
-16.099687586040993
20
84.246473777579155
10
-16.099687586040982
20
96.273774020825186
10
-23.938397723756939
20
104.11248415854118
10
-35.47430783628311
20
104.11248415854118
10
-43.847003603402079
20
95.739788391422223
10
-43.847003603402101
20
84.780459406982104
10
-35.431712337600032
20
76.36516814118005
10
-23.980993222440084
20
76.36516814118005
0
LWPOLYLINE
5
107
100
AcDbEntity
8
0
100
AcDbPolyline
90
3
70
1
43
0.0
10
-15.099687571139832
20
85.246473792480302
10
-10.086037464417972
20
90.260123899202142
10
-15.099687571139819
20
95.273774005924025
0
LWPOLYLINE
5
108
100
AcDbEntity
8
0
100
AcDbPolyline
90
3
70
1
43
0.0
10
-44.847003618303248
20
85.780459421883265
10
-44.847003618303241
20
94.739788376521048
10
-49.326668095622132
20
90.260123899202171
0
LWPOLYLINE
5
109
100
AcDbEntity
8
0
100
AcDbPolyline
90
52
70
1
43
0.0
10
-6.4358607923978317
20
103.33682293619817
10
-6.4358607923978379
20
98.336822936198189
10
-8.4358607923978308
20
98.336822936198189
10
-8.4358607923978379
20
93.336822936198189
10
-6.435860792397845
20
93.336822936198189
10
-6.4358607923978521
20
88.336822936198217
10
-8.4358607923978433
20
88.336822936198217
10
-8.4358607923978504
20
83.336822936198217
10
-6.4358607923978584
20
83.336822936198189
10
-6.4358607923978637
20
78.336822936198217
10
-8.4358607923978557
20
78.336822936198217
10
-8.4358607923978628
20
73.336822936198217
10
-6.4358607923978708
20
73.336822936198217
10
-6.435860792397877
20
68.336822936198232
10
-11.335860792397858
20
68.336822936198232
10
-11.33586079239786
20
65.836822936198246
10
-16.735860792397837
20
65.836822936198246
10
-16.735860792397833
20
68.336822936198246
10
-21.335860792397817
20
68.336822936198232
10
-21.335860792397817
20
65.836822936198246
10
-26.735860792397794
20
65.836822936198246
10
-26.735860792397791
20
68.336822936198232
10
-31.335860792397771
20
68.336822936198232
10
-31.335860792397774
20
65.836822936198246
10
-36.735860792397752
20
65.836822936198246
10
-36.735860792397752
20
68.336822936198232
10
-41.335860792397732
20
68.336822936198232
10
-41.335860792397739
20
65.836822936198232
10
-46.735860792397702
20
65.836822936198246
10
-46.735860792397702
20
68.336822936198232
10
-56.435860792397669
20
68.336822936198217
10
-56.435860792397669
20
73.336822936198217
10
-53.435860792397676
20
73.336822936198217
10
-53.435860792397662
20
78.336822936198203
10
-56.435860792397648
20
78.336822936198217
10
-56.435860792397648
20
83.336822936198189
10
-53.435860792397669
20
83.336822936198189
10
-53.435860792397648
20
88.336822936198189
10
-56.435860792397641
20
88.336822936198189
10
-56.435860792397641
20
93.336822936198175
10
-53.435860792397648
20
93.336822936198175
10
-53.435860792397634
20
98.336822936198175
10
-56.435860792397619
20
98.336822936198175
10
-56.435860792397619
20
103.33682293619816
10
-53.435860792397641
20
103.33682293619816
10
-53.435860792397627
20
108.33682293619817
10
-56.435860792397612
20
108.33682293619816
10
-56.435860792397605
20
113.33682293619815
10
-6.4358607923978193
20
113.33682293619816
10
-6.4358607923978264
20
108.33682293619816
10
-8.4358607923978184
20
108.33682293619816
10
-8.4358607923978202
20
103.33682293619816
0
LWPOLYLINE
5
110
100
AcDbEntity
8
0
100
AcDbPolyline
90
4
70
1
43
0.0
10
32.582946661899129
20
96.049723276353092
10
31.407376157314179
20
94.431689287603177
42
-0.078701706824613193
10
33.904056309194857
20
91.93500913572251
10
35.522090297944764
20
93.110579640307463
42
0.07870170682461404
0
LWPOLYLINE
5
111
100
AcDbEntity
8
0
100
AcDbPolyline
90
4
70
1
43
0.0
10
37.409136672886312
20
81.19623773225814
10
35.50702364029582
20
81.814271721008097
42
-0.078701706824617329
10
33.904056309194857
20
78.668271197007357
10
35.52209029794475
20
77.492700692422417
42
0.078701706824617662
0
LWPOLYLINE
5
112
100
AcDbEntity
8
0
100
AcDbPolyline
90
4
70
1
43
0.0
10
24.774007187956588
20
72.016278814602344
42
-0.078701706824621687
10
20.668604753849792
20
72.666510681435227
10
21.286638742599688
20
74.56862371402552
42
0.078701706824622367
10
24.774007187956599
20
74.016278814602231
0
LWPOLYLINE
5
113
100
AcDbEntity
8
0
100
AcDbPolyline
90
4
70
1
43
0.0
10
12.138877703026871
20
81.19623773225814
10
14.040990735617058
20
81.814271721007998
42
-0.078701706824621909
10
13.488645836193884
20
85.301640166364933
10
11.488645836193886
20
85.301640166364933
42
0.078701706824621381
0
LWPOLYLINE
5
114
100
AcDbEntity
8
0
100
AcDbPolyline
90
4
70
1
43
0.0
10
16.965067714014086
20
96.049723276353092
10
18.140638218598909
20
94.431689287603348
42
-0.078701706824616996
10
21.286638742599692
20
96.034656618704332
10
20.668604753849795
20
97.936769651294654
42
0.078701706824617135
0
LWPOLYLINE
5
115
100
AcDbEntity
8
0
100
AcDbPolyline
90
4
70
1
43
0.0
10
12.13887770302688
20
89.407042600471726
10
14.040990735616994
20
88.789008611721911
42
-0.078701706824619896
10
15.643958066718341
20
91.93500913572251
10
14.025924077968428
20
93.110579640307449
42
0.078701706824619563
0
LWPOLYLINE
5
116
100
AcDbEntity
8
0
100
AcDbPolyline
90
4
70
1
43
0.0
10
16.965067714014076
20
74.553557056376775
10
18.140638218599019
20
76.171591045126661
42
-0.078701706824623255
10
15.643958066718328
20
78.668271197007357
10
14.025924077968439
20
77.492700692422417
42
0.07870170682462245
0
LWPOLYLINE
5
117
100
AcDbEntity
8
0
100
AcDbPolyline
90
4
70
1
43
0.0
10
32.582946661899122
20
74.553557056376775
10
31.407376157314062
20
76.171591045126831
42
-0.078701706824620229
10
28.261375633313502
20
74.56862371402552
10
28.879409622063406
20
72.666510681435227
42
0.078701706824619744
0
LWPOLYLINE
5
118
100
AcDbEntity
8
0
100
AcDbPolyline
90
4
70
1
43
0.0
10
37.409136672886312
20
89.407042600471726
10
35.507023640295884
20
88.789008611721812
42
-0.078701706824614651
10
36.059368539719308
20
85.301640166364933
10
38.059368539719301
20
85.301640166364962
42
0.078701706824614692
0
LWPOLYLINE
5
119
100
AcDbEntity
8
0
100
AcDbPolyline
90
4
70
1
43
0.0
10
24.774007187956599
20
98.587001518127778
42
-0.078701706824615095
10
28.879409622063399
20
97.936769651294654
10
28.261375633313502
20
96.034656618704332
42
0.078701706824614692
10
24.774007187956599
20
96.58700151812765
0
LWPOLYLINE
5
120
100
AcDbEntity
8
0
100
AcDbPolyline
90
4
70
1
43
0.0
10
34.934087671069022
20
99.285791253852864
10
33.758517166484069
20
97.667757265102964
42
-0.078701706824614651
10
37.140124286694643
20
94.286150144892389
10
38.758158275444544
20
95.461720649477343
42
0.078701706824615053
0
LWPOLYLINE
5
121
100
AcDbEntity
8
0
100
AcDbPolyline
90
4
70
1
43
0.0
10
41.213362738066934
20
79.96016975475834
10
39.311249705476435
20
80.578203743508311
42
-0.078701706824617662
10
37.140124286694643
20
76.317130187837463
10
38.758158275444544
20
75.141559683252524
42
0.078701706824617579
0
LWPOLYLINE
5
122
100
AcDbEntity
8
0
100
AcDbPolyline
90
4
70
1
43
0.0
10
24.774007187956592
20
68.016278814602344
42
-0.078701706824620909
10
19.432536776350005
20
68.862284616254613
10
20.050570765099891
20
70.76439764884492
42
0.078701706824621381
10
24.774007187956592
20
70.016278814602231
0
LWPOLYLINE
5
123
100
AcDbEntity
8
0
100
AcDbPolyline
90
4
70
1
43
0.0
10
8.3346516378462425
20
79.960169754758354
10
10.236764670436449
20
80.578203743508226
42
-0.078701706824621132
10
9.4886458361938857
20
85.301640166364933
10
7.4886458361938857
20
85.301640166364933
42
0.078701706824620826
0
ARC
5
124
100
AcDbEntity
8
0
100
AcDbCircle
10
24.77400718795613
20
85.30164016636445
30
5.4245577271323973e-44
40
9.2853613517633242
210
8.8128536232927933e-46
220
4.9303806576316325e-32
230
1
100
AcDbArc
50
71.999999999998195
51
89.999999999997087
0
LINE
5
125
100
AcDbEntity
8
0
100
AcDbLine
10
27.643341644563609
20
94.132543586114039
30
-4.3539715410141276e-31
11
24.77400718795613
21
85.30164016636445
31
5.4245577271323973e-44
0
LINE
5
126
100
AcDbEntity
8
0
100
AcDbLine
10
24.77400718795613
20
85.30164016636445
30
5.4245577271323973e-44
11
30.231805652729228
21
92.813655298853277
31
0
0
ARC
5
127
100
AcDbEntity
8
0
100
AcDbCircle
10
24.77400718795613
20
85.30164016636445
30
5.4245577271323973e-44
40
9.2853613517633864
210
2.3184040309947939e-31
220
3.1910093926089178e-31
230
1
100
AcDbArc
50
36.000000000000881
51
53.999999999999304
0
LINE
5
128
100
AcDbEntity
8
0
100
AcDbLine
10
32.286022320444957
20
90.759438631137584
30
-3.4831772328113077e-30
11
24.77400718795613
21
85.30164016636445
31
5.4245577271323973e-44
0
LINE
5
129
100
AcDbEntity
8
0
100
AcDbLine
10
24.77400718795613
20
85.30164016636445
30
5.4245577271323973e-44
11
33.604910607705698
21
88.170974622971954
31
0
0
ARC
5
130
100
AcDbEntity
8
0
100
AcDbCircle
10
24.77400718795613
20
85.30164016636445
30
5.4245577271323973e-44
40
9.285361351763175
210
7.5025130436089203e-31
220
2.4377142591129526e-31
230
1
100
AcDbArc
50
0
51
18.000000000002004
0
LINE
5
131
100
AcDbEntity
8
0
100
AcDbLine
10
34.059368539719308
20
85.301640166364933
30
-6.9663544656226042e-30
11
24.77400718795613
21
85.30164016636445
31
5.4245577271323973e-44
0
LINE
5
132
100
AcDbEntity
8
0
100
AcDbLine
10
24.77400718795613
20
85.30164016636445
30
5.4245577271323973e-44
11
33.604910607705698
21
82.432305709757941
31
0
0
ARC
5
133
100
AcDbEntity
8
0
100
AcDbCircle
10
24.77400718795613
20
85.30164016636445
30
5.4245577271323973e-44
40
9.2853613517627949
210
-8.1119416083872617e-31
220
5.6208599821036376e-32
230
1
100
AcDbArc
50
324.00000000000421
51
342.00000000000381
0
LINE
5
134
100
AcDbEntity
8
0
100
AcDbLine
10
32.286022320444964
20
79.843841701592325
30
6.4004780214173892e-30
11
24.77400718795613
21
85.30164016636445
31
5.4245577271323973e-44
0
LINE
5
135
100
AcDbEntity
8
0
100
AcDbLine
10
24.77400718795613
20
85.30164016636445
30
5.4245577271323973e-44
11
30.231805652729228
21
77.789625033876575
31
0
0
ARC
5
136
100
AcDbEntity
8
0
100
AcDbCircle
10
24.77400718795613
20
85.30164016636445
30
5.4245577271323973e-44
40
9.2853613517623792
210
1.8052937964918534e-45
220
-5.5561229972263649e-45
230
1
100
AcDbArc
50
288.00000000000375
51
306.00000000000415
0
LINE
5
137
100
AcDbEntity
8
0
100
AcDbLine
10
27.643341644563613
20
76.470736746615842
30
0
11
24.77400718795613
21
85.30164016636445
31
5.4245577271323973e-44
0
LINE
5
138
100
AcDbEntity
8
0
100
AcDbLine
10
24.77400718795613
20
85.30164016636445
30
5.4245577271323973e-44
11
24.774007187956592
21
76.016278814602217
31
0
0
ARC
5
139
100
AcDbEntity
8
0
100
AcDbCircle
10
24.77400718795613
20
85.30164016636445
30
5.4245577271323973e-44
40
9.2853613517620914
210
-1.0975013363168977e-45
220
4.9303806576310233e-32
230
1
100
AcDbArc
50
252.00000000000179
51
270.00000000000284
0
LINE
5
140
100
AcDbEntity
8
0
100
AcDbLine
10
21.904672731349581
20
76.470736746615842
30
4.3539715410141276e-31
11
24.77400718795613
21
85.30164016636445
31
5.4245577271323973e-44
0
LINE
5
141
100
AcDbEntity
8
0
100
AcDbLine
10
24.77400718795613
20
85.30164016636445
30
5.4245577271323973e-44
11
19.316208723183976
21
77.789625033876575
31
0
0
ARC
5
142
100
AcDbEntity
8
0
100
AcDbCircle
10
24.77400718795613
20
85.30164016636445
30
5.4245577271323973e-44
40
9.2853613517620417
210
-5.509413423604326e-31
220
-8.7260536161424193e-32
230
1
100
AcDbArc
50
215.99999999999929
51
234.00000000000054
0
LINE
5
143
100
AcDbEntity
8
0
100
AcDbLine
10
17.261992055468234
20
79.843841701592311
30
-4.6149301212217245e-30
11
24.77400718795613
21
85.30164016636445
31
5.4245577271323973e-44
0
LINE
5
144
100
AcDbEntity
8
0
100
AcDbLine
10
24.77400718795613
20
85.30164016636445
30
5.4245577271323973e-44
11
15.943103768207497
21
82.432305709757941
31
0
0
ARC
5
145
100
AcDbEntity
8
0
100
AcDbCircle
10
24.77400718795613
20
85.30164016636445
30
5.4245577271323973e-44
40
9.2853613517622424
210
8.1119416083879922e-31
220
5.6208599821061479e-32
230
1
100
AcDbArc
50
180
51
197.99999999999793
0
LINE
5
146
100
AcDbEntity
8
0
100
AcDbLine
10
15.488645836193889
20
85.301640166364933
30
7.5322309098278165e-30
11
24.77400718795613
21
85.30164016636445
31
5.4245577271323973e-44
0
LINE
5
147
100
AcDbEntity
8
0
100
AcDbLine
10
24.77400718795613
20
85.30164016636445
30
5.4245577271323973e-44
11
15.943103768207493
21
88.170974622971954
31
0
0
ARC
5
148
100
AcDbEntity
8
0
100
AcDbCircle
10
24.77400718795613
20
85.30164016636445
30
5.4245577271323973e-44
40
9.2853613517626243
210
-7.5025130436096086e-31
220
2.4377142591131575e-31
230
1
100
AcDbArc
50
143.99999999999582
51
161.99999999999628
0
LINE
5
149
100
AcDbEntity
8
0
100
AcDbLine
10
17.261992055468237
20
90.75943863113757
30
-6.9663544656226e-30
11
24.77400718795613
21
85.30164016636445
31
5.4245577271323973e-44
0
LINE
5
150
100
AcDbEntity
8
0
100
AcDbLine
10
24.77400718795613
20
85.30164016636445
30
5.4245577271323973e-44
11
19.31620872318398
21
92.81365529885332
31
0
0
ARC
5
151
100
AcDbEntity
8
0
100
AcDbCircle
10
24.77400718795613
20
85.30164016636445
30
5.4245577271323973e-44
40
9.2853613517630382
210
-1.8052937964910108e-45
220
5.5561229972262037e-45
230
1
100
AcDbArc
50
107.99999999999636
51
125.99999999999582
0
LINE
5
152
100
AcDbEntity
8
0
100
AcDbLine
10
21.904672731349581
20
94.132543586114039
30
0
11
24.77400718795613
21
85.30164016636445
31
5.4245577271323973e-44
0
LINE
5
153
100
AcDbEntity
8
0
100
AcDbLine
10
24.77400718795613
20
85.30164016636445
30
5.4245577271323973e-44
11
24.774007187956602
21
94.58700151812765
31
-4.5780366007848306e-31
0
LWPOLYLINE
5
154
100
AcDbEntity
8
0
100
AcDbPolyline
90
4
70
1
43
0.0
10
14.613926704844189
20
99.285791253852906
10
15.789497209429037
20
97.667757265103148
42
-0.078701706824616996
10
20.050570765099902
20
99.838882683884947
10
19.432536776349998
20
101.74099571647528
42
0.078701706824617218
0
LWPOLYLINE
5
155
100
AcDbEntity
8
0
100
AcDbPolyline
90
4
70
1
43
0.0
10
8.334651637846278
20
90.643110577971527
10
10.236764670436385
20
90.025076589221683
42
-0.078701706824619452
10
12.407890089218549
20
94.286150144892389
10
10.789856100468651
20
95.461720649477343
42
0.078701706824619383
0
LWPOLYLINE
5
156
100
AcDbEntity
8
0
100
AcDbPolyline
90
4
70
1
43
0.0
10
14.613926704844189
20
71.317489078876989
10
15.789497209429138
20
72.935523067626875
42
-0.078701706824622131
10
12.407890089218544
20
76.317130187837478
10
10.789856100468661
20
75.141559683252524
42
0.078701706824621284
0
LWPOLYLINE
5
157
100
AcDbEntity
8
0
100
AcDbPolyline
90
4
70
1
43
0.0
10
34.934087671069001
20
71.317489078877003
10
33.758517166483955
20
72.935523067627045
42
-0.078701706824619785
10
29.497443610813292
20
70.764397648844906
10
30.115477599563192
20
68.862284616254613
42
0.07870170682461948
0
LWPOLYLINE
5
158
100
AcDbEntity
8
0
100
AcDbPolyline
90
4
70
1
43
0.0
10
41.213362738066913
20
90.643110577971527
10
39.311249705476492
20
90.025076589221584
42
-0.078701706824615539
10
40.059368539719308
20
85.301640166364933
10
42.059368539719308
20
85.301640166364919
42
0.078701706824615941
0
LWPOLYLINE
5
159
100
AcDbEntity
8
0
100
AcDbPolyline
90
4
70
1
43
0.0
10
24.774007187956588
20
102.58700151812776
42
-0.078701706824615872
10
30.115477599563185
20
101.74099571647528
10
29.497443610813292
20
99.838882683884947
42
0.078701706824615497
10
24.774007187956606
20
100.58700151812765
0
LWPOLYLINE
5
160
100
AcDbEntity
8
0
100
AcDbPolyline
90
52
70
1
43
0.0
10
47.499999999999993
20
67.299999999999983
10
47.499999999999993
20
59.999999999999993
10
42.499999999999993
20
59.999999999999993
10
42.499999999999993
20
62.999999999999986
10
37.499999999999993
20
62.999999999999986
10
37.499999999999993
20
59.999999999999993
10
32.499999999999993
20
59.999999999999993
10
32.499999999999993
20
62.999999999999986
10
27.499999999999993
20
62.999999999999986
10
27.499999999999993
20
59.999999999999993
10
22.499999999999993
20
59.999999999999993
10
22.499999999999993
20
62.999999999999986
10
17.499999999999989
20
62.999999999999986
10
17.499999999999989
20
59.999999999999993
10
12.499999999999989
20
59.999999999999993
10
12.499999999999989
20
62.999999999999986
10
7.4999999999999893
20
62.999999999999986
10
7.4999999999999893
20
59.999999999999993
10
2.4999999999999885
20
59.999999999999993
10
2.4999999999999898
20
67.299999999999983
10
-1.1424653430430923e-14
20
67.299999999999983
10
-1.1657341758564144e-14
20
72.699999999999989
10
2.4999999999999893
20
72.699999999999989
10
2.4999999999999898
20
77.299999999999983
10
-1.1424653430430908e-14
20
77.299999999999983
10
-1.1657341758564144e-14
20
82.699999999999989
10
2.4999999999999893
20
82.699999999999989
10
2.4999999999999898
20
87.299999999999983
10
-1.1424653430430908e-14
20
87.299999999999983
10
-1.1657341758564144e-14
20
92.699999999999989
10
2.4999999999999893
20
92.699999999999989
10
2.4999999999999898
20
97.299999999999983
10
-1.1424653430430908e-14
20
97.299999999999983
10
-1.1657341758564144e-14
20
102.69999999999999
10
2.4999999999999893
20
102.69999999999999
10
2.4999999999999911
20
107.5
10
47.499999999999993
20
107.5
10
47.499999999999993
20
102.69999999999999
10
49.999999999999993
20
102.69999999999997
10
49.999999999999993
20
97.299999999999983
10
47.499999999999993
20
97.299999999999983
10
47.499999999999993
20
92.699999999999989
10
49.999999999999993
20
92.699999999999989
10
49.999999999999993
20
87.299999999999983
10
47.499999999999993
20
87.299999999999983
10
47.499999999999993
20
82.699999999999989
10
49.999999999999993
20
82.699999999999989
10
49.999999999999993
20
77.299999999999983
10
47.499999999999993
20
77.299999999999983
10
47.499999999999993
20
72.699999999999989
10
49.999999999999993
20
72.699999999999989
10
49.999999999999993
20
67.299999999999983
0
LWPOLYLINE
5
161
100
AcDbEntity
8
0
100
AcDbPolyline
90
3
70
1
43
0.0
10
89.430088730545734
20
64.802985647401826
10
94.155448273224565
20
69.528345190080657
10
84.704729187866903
20
69.528345190080657
0
LWPOLYLINE
5
162
100
AcDbEntity
8
0
100
AcDbPolyline
90
3
70
1
43
0.0
10
89.430088730545734
20
104.04361627860612
10
84.662133689183776
20
99.275661237244179
10
94.198043771907692
20
99.275661237244179
0
LWPOLYLINE
5
163
100
AcDbEntity
8
0
100
AcDbPolyline
90
3
70
1
43
0.0
10
103.57073955392781
20
98.275661222343032
10
96.612257370255335
20
98.275661222343018
10
103.57073955392785
20
91.31717903867056
0
LWPOLYLINE
5
164
100
AcDbEntity
8
0
100
AcDbPolyline
90
3
70
1
43
0.0
10
82.290515589519231
20
70.528345204981818
10
75.823423536566636
20
76.995437257934398
10
75.823423536566622
20
70.528345204981818
0
LWPOLYLINE
5
165
100
AcDbEntity
8
0
100
AcDbPolyline
90
3
70
1
43
0.0
10
103.57073955392784
20
70.528345204981818
10
103.57073955392784
20
77.529422887337404
10
96.569661871572237
20
70.528345204981818
0
LWPOLYLINE
5
166
100
AcDbEntity
8
0
100
AcDbPolyline
90
3
70
1
43
0.0
10
75.823423536566622
20
98.275661222343018
10
75.823423536566622
20
91.851164668073508
10
82.247920090836118
20
98.275661222343018
0
LWPOLYLINE
5
167
100
AcDbEntity
8
0
100
AcDbPolyline
90
8
70
1
43
0.0
10
75.823423536566622
20
90.436951084626997
10
75.823423536566622
20
78.409650841380937
10
83.704729172965742
20
70.528345204981818
10
95.155448288125726
20
70.528345204981818
10
103.57073955392784
20
78.943636470783929
10
103.57073955392784
20
89.902965455224034
10
95.198043786808853
20
98.275661222343018
10
83.662133674282643
20
98.275661222343018
0
LWPOLYLINE
5
168
100
AcDbEntity
8
0
100
AcDbPolyline
90
3
70
1
43
0.0
10
69.809773414943592
20
84.423300963003953
10
74.823423521665461
20
79.409650856282099
10
74.823423521665461
20
89.436951069725836
0
LWPOLYLINE
5
169
100
AcDbEntity
8
0
100
AcDbPolyline
90
3
70
1
43
0.0
10
104.570739568829
20
88.902965440322873
10
104.570739568829
20
79.943636485685076
10
109.05040404614789
20
84.423300963003982
0
LWPOLYLINE
5
170
100
AcDbEntity
8
0
100
AcDbPolyline
90
52
70
1
43
0.0
10
66.159596742923455
20
92.5
10
66.159596742923455
20
97.5
10
68.159596742923455
20
97.5
10
68.159596742923455
20
102.5
10
66.159596742923455
20
102.5
10
66.159596742923441
20
107.5
10
116.15959674292343
20
107.5
10
116.15959674292341
20
102.49999999999999
10
113.15959674292343
20
102.5
10
113.15959674292344
20
97.5
10
116.15959674292343
20
97.5
10
116.15959674292341
20
92.5
10
113.15959674292343
20
92.5
10
113.15959674292344
20
87.5
10
116.15959674292343
20
87.5
10
116.15959674292341
20
82.5
10
113.15959674292343
20
82.5
10
113.15959674292344
20
77.499999999999986
10
116.15959674292343
20
77.499999999999986
10
116.15959674292341
20
72.499999999999986
10
113.15959674292343
20
72.5
10
113.15959674292344
20
67.499999999999986
10
116.15959674292343
20
67.499999999999986
10
116.15959674292343
20
62.499999999999993
10
106.45959674292344
20
62.5
10
106.45959674292344
20
60
10
101.05959674292345
20
60
10
101.05959674292343
20
62.5
10
96.459596742923438
20
62.5
10
96.459596742923438
20
60
10
91.059596742923446
20
60
10
91.059596742923432
20
62.5
10
86.459596742923438
20
62.5
10
86.459596742923452
20
60
10
81.059596742923446
20
60
10
81.059596742923475
20
62.5
10
76.459596742923452
20
62.5
10
76.459596742923452
20
60
10
71.059596742923461
20
60
10
71.059596742923461
20
62.5
10
66.159596742923455
20
62.499999999999993
10
66.159596742923455
20
67.499999999999986
10
68.159596742923455
20
67.5
10
68.159596742923455
20
72.5
10
66.159596742923455
20
72.5
10
66.159596742923455
20
77.499999999999986
10
68.159596742923455
20
77.499999999999986
10
68.159596742923455
20
82.5
10
66.159596742923455
20
82.5
10
66.159596742923455
20
87.5
10
68.159596742923455
20
87.5
10
68.159596742923455
20
92.5
0
LWPOLYLINE
5
171
100
AcDbEntity
8
0
100
AcDbPolyline
90
4
70
1
43
0.0
10
102.5829466618989
20
36.049723276353085
10
101.40737615731396
20
34.431689287603191
42
-0.07870170682462313
10
103.90405630919463
20
31.935009135722503
10
105.52209029794453
20
33.110579640307449
42
0.07870170682462227
0
LWPOLYLINE
5
172
100
AcDbEntity
8
0
100
AcDbPolyline
90
4
70
1
43
0.0
10
107.40913667288609
20
21.19623773225814
10
105.50702364029598
20
21.814271721007962
42
-0.078701706824620007
10
103.90405630919463
20
18.668271197007357
10
105.52209029794453
20
17.492700692422414
42
0.078701706824619841
0
LWPOLYLINE
5
173
100
AcDbEntity
8
0
100
AcDbPolyline
90
4
70
1
43
0.0
10
94.774007187956371
20
12.016278814602098
42
-0.078701706824614873
10
90.668604753849579
20
12.666510681435213
10
91.28663874259945
20
14.568623714025517
42
0.078701706824614776
10
94.774007187956371
20
14.016278814602218
0
LWPOLYLINE
5
174
100
AcDbEntity
8
0
100
AcDbPolyline
90
4
70
1
43
0.0
10
82.138877703026651
20
21.19623773225814
10
84.0409907356171
20
21.814271721008076
42
-0.078701706824614318
10
83.488645836193669
20
25.301640166364933
10
81.488645836193683
20
25.301640166364926
42
0.078701706824614873
0
LWPOLYLINE
5
175
100
AcDbEntity
8
0
100
AcDbPolyline
90
4
70
1
43
0.0
10
86.96506771401387
20
36.049723276353085
10
88.140638218598923
20
34.431689287603021
42
-0.078701706824619896
10
91.286638742599479
20
36.034656618704332
10
90.668604753849564
20
37.936769651294654
42
0.07870170682461966
0
LWPOLYLINE
5
176
100
AcDbEntity
8
0
100
AcDbPolyline
90
4
70
1
43
0.0
10
82.138877703026651
20
29.407042600471726
10
84.040990735617171
20
28.789008611721762
42
-0.07870170682461744
10
85.643958066718127
20
31.935009135722503
10
84.025924077968199
20
33.110579640307442
42
0.078701706824617218
0
LWPOLYLINE
5
177
100
AcDbEntity
8
0
100
AcDbPolyline
90
4
70
1
43
0.0
10
86.965067714013855
20
14.553557056376764
10
88.140638218598809
20
16.171591045126668
42
-0.078701706824613638
10
85.643958066718113
20
18.668271197007357
10
84.025924077968227
20
17.492700692422403
42
0.07870170682461404
0
LWPOLYLINE
5
178
100
AcDbEntity
8
0
100
AcDbPolyline
90
4
70
1
43
0.0
10
102.5829466618989
20
14.553557056376773
10
101.40737615731408
20
16.171591045126497
42
-0.078701706824616996
10
98.261375633313278
20
14.568623714025517
10
98.879409622063179
20
12.666510681435213
42
0.078701706824617135
0
LWPOLYLINE
5
179
100
AcDbEntity
8
0
100
AcDbPolyline
90
4
70
1
43
0.0
10
107.40913667288609
20
29.407042600471726
10
105.50702364029591
20
28.789008611721869
42
-0.078701706824622131
10
106.05936853971909
20
25.301640166364933
10
108.05936853971907
20
25.30164016636494
42
0.078701706824621381
0
LWPOLYLINE
5
180
100
AcDbEntity
8
0
100
AcDbPolyline
90
4
70
1
43
0.0
10
94.774007187956357
20
38.587001518127522
42
-0.078701706824621798
10
98.879409622063164
20
37.936769651294647
10
98.261375633313278
20
36.034656618704332
42
0.07870170682462227
10
94.774007187956371
20
36.587001518127643
0
LWPOLYLINE
5
181
100
AcDbEntity
8
0
100
AcDbPolyline
90
4
70
1
43
0.0
10
104.93408767106882
20
39.285791253852864
10
103.75851716648386
20
37.667757265102956
42
-0.078701706824621465
10
107.14012428669442
20
34.286150144892382
10
108.75815827544432
20
35.461720649477336
42
0.078701706824621201
0
LWPOLYLINE
5
182
100
AcDbEntity
8
0
100
AcDbPolyline
90
4
70
1
43
0.0
10
111.21336273806671
20
19.960169754758333
10
109.3112497054766
20
20.578203743508169
42
-0.078701706824619674
10
107.14012428669442
20
16.31713018783746
10
108.75815827544432
20
15.141559683252519
42
0.0787017068246193
0
LWPOLYLINE
5
183
100
AcDbEntity
8
0
100
AcDbPolyline
90
4
70
1
43
0.0
10
94.774007187956386
20
8.0162788146020958
42
-0.078701706824615983
10
89.432536776349778
20
8.8622846162546018
10
90.050570765099678
20
10.764397648844906
42
0.078701706824615414
10
94.774007187956357
20
10.01627881460222
0
LWPOLYLINE
5
184
100
AcDbEntity
8
0
100
AcDbPolyline
90
4
70
1
43
0.0
10
78.334651637846022
20
19.960169754758343
10
80.2367646704365
20
20.578203743508293
42
-0.078701706824615317
10
79.488645836193683
20
25.301640166364933
10
77.488645836193669
20
25.301640166364926
42
0.078701706824615761
0
ARC
5
185
100
AcDbEntity
8
0
100
AcDbCircle
10
94.774007187956855
20
25.301640166365431
30
4.1223354432930458e-43
40
9.2853613517620843
210
1.4716370786473711e-44
220
4.9303806576357926e-32
230
1
100
AcDbArc
50
72.000000000001904
51
90.000000000002899
0
LINE
5
186
100
AcDbEntity
8
0
100
AcDbLine
10
97.643341644563378
20
34.132543586114032
30
-4.3539715410141285e-31
11
94.774007187956855
21
25.301640166365431
31
4.1223354432930458e-43
0
LINE
5
187
100
AcDbEntity
8
0
100
AcDbLine
10
94.774007187956855
20
25.301640166365431
30
4.1223354432930458e-43
11
100.23180565272901
21
32.81365529885327
31
0
0
ARC
5
188
100
AcDbEntity
8
0
100
AcDbCircle
10
94.774007187956855
20
25.301640166365431
30
4.1223354432930458e-43
40
9.2853613517620257
210
2.3184040309956316e-31
220
3.1910093926094117e-31
230
1
100
AcDbArc
50
35.999999999999353
51
54.000000000000433
0
LINE
5
189
100
AcDbEntity
8
0
100
AcDbLine
10
102.28602232044473
20
30.759438631137566
30
-3.483177232811307e-30
11
94.774007187956855
21
25.301640166365431
31
4.1223354432930458e-43
0
LINE
5
190
100
AcDbEntity
8
0
100
AcDbLine
10
94.774007187956855
20
25.301640166365431
30
4.1223354432930458e-43
11
103.60491060770548
21
28.17097462297194
31
0
0
ARC
5
191
100
AcDbEntity
8
0
100
AcDbCircle
10
94.774007187956855
20
25.301640166365431
30
4.1223354432930458e-43
40
9.2853613517622158
210
7.5025130436103408e-31
220
2.4377142591127722e-31
230
1
100
AcDbArc
50
0
51
17.99999999999795
0
LINE
5
192
100
AcDbEntity
8
0
100
AcDbLine
10
104.05936853971907
20
25.301640166364933
30
-6.9663544656226042e-30
11
94.774007187956855
21
25.301640166365431
31
4.1223354432930458e-43
0
LINE
5
193
100
AcDbEntity
8
0
100
AcDbLine
10
94.774007187956855
20
25.301640166365431
30
4.1223354432930458e-43
11
103.60491060770548
21
22.432305709757927
31
0
0
ARC
5
194
100
AcDbEntity
8
0
100
AcDbCircle
10
94.774007187956855
20
25.301640166365431
30
4.1223354432930458e-43
40
9.2853613517626066
210
-8.111941608387528e-31
220
5.6208599821066252e-32
230
1
100
AcDbArc
50
323.99999999999574
51
341.99999999999613
0
LINE
5
195
100
AcDbEntity
8
0
100
AcDbLine
10
102.28602232044473
20
19.843841701592304
30
6.4004780214173892e-30
11
94.774007187956855
21
25.301640166365431
31
4.1223354432930458e-43
0
LINE
5
196
100
AcDbEntity
8
0
100
AcDbLine
10
94.774007187956855
20
25.301640166365431
30
4.1223354432930458e-43
11
100.23180565272901
21
17.789625033876561
31
0
0
ARC
5
197
100
AcDbEntity
8
0
100
AcDbCircle
10
94.774007187956855
20
25.301640166365431
30
4.1223354432930458e-43
40
9.2853613517630329
210
1.3719139839933115e-44
220
-4.2223170829576786e-44
230
1
100
AcDbArc
50
287.99999999999619
51
305.99999999999579
0
LINE
5
198
100
AcDbEntity
8
0
100
AcDbLine
10
97.643341644563378
20
16.470736746615831
30
0
11
94.774007187956855
21
25.301640166365431
31
4.1223354432930458e-43
0
LINE
5
199
100
AcDbEntity
8
0
100
AcDbLine
10
94.774007187956855
20
25.301640166365431
30
4.1223354432930458e-43
11
94.774007187956371
21
16.016278814602209
31
0
0
ARC
5
200
100
AcDbEntity
8
0
100
AcDbCircle
10
94.774007187956855
20
25.301640166365431
30
4.1223354432930458e-43
40
9.2853613517633296
210
-1.4532997745243706e-44
220
4.9303806576268506e-32
230
1
100
AcDbArc
50
251.99999999999818
51
269.99999999999699
0
LINE
5
201
100
AcDbEntity
8
0
100
AcDbLine
10
91.904672731349365
20
16.470736746615831
30
4.3539715410141285e-31
11
94.774007187956855
21
25.301640166365431
31
4.1223354432930458e-43
0
LINE
5
202
100
AcDbEntity
8
0
100
AcDbLine
10
94.774007187956855
20
25.301640166365431
30
4.1223354432930458e-43
11
89.316208723183763
21
17.789625033876561
31
0
0
ARC
5
203
100
AcDbEntity
8
0
100
AcDbCircle
10
94.774007187956855
20
25.301640166365431
30
4.1223354432930458e-43
40
9.2853613517633988
210
-5.5094134236040598e-31
220
-8.726053616141423e-32
230
1
100
AcDbArc
50
216.00000000000071
51
233.99999999999949
0
LINE
5
204
100
AcDbEntity
8
0
100
AcDbLine
10
87.261992055467999
20
19.843841701592304
30
-4.6149301212217245e-30
11
94.774007187956855
21
25.301640166365431
31
4.1223354432930458e-43
0
LINE
5
205
100
AcDbEntity
8
0
100
AcDbLine
10
94.774007187956855
20
25.301640166365431
30
4.1223354432930458e-43
11
85.94310376820728
21
22.432305709757927
31
0
0
ARC
5
206
100
AcDbEntity
8
0
100
AcDbCircle
10
94.774007187956855
20
25.301640166365431
30
4.1223354432930458e-43
40
9.285361351763175
210
8.1119416083867293e-31
220
5.6208599821042528e-32
230
1
100
AcDbArc
50
180
51
198.00000000000196
0
LINE
5
207
100
AcDbEntity
8
0
100
AcDbLine
10
85.488645836193683
20
25.301640166364933
30
7.5322309098278151e-30
11
94.774007187956855
21
25.301640166365431
31
4.1223354432930458e-43
0
LINE
5
208
100
AcDbEntity
8
0
100
AcDbLine
10
94.774007187956855
20
25.301640166365431
30
4.1223354432930458e-43
11
85.94310376820728
21
28.17097462297194
31
0
0
ARC
5
209
100
AcDbEntity
8
0
100
AcDbCircle
10
94.774007187956855
20
25.301640166365431
30
4.1223354432930458e-43
40
9.2853613517628002
210
-7.5025130436095035e-31
220
2.4377142591131098e-31
230
1
100
AcDbArc
50
144.00000000000412
51
162.00000000000387
0
LINE
5
210
100
AcDbEntity
8
0
100
AcDbLine
10
87.261992055468028
20
30.759438631137563
30
-6.9663544656226e-30
11
94.774007187956855
21
25.301640166365431
31
4.1223354432930458e-43
0
LINE
5
211
100
AcDbEntity
8
0
100
AcDbLine
10
94.774007187956855
20
25.301640166365431
30
4.1223354432930458e-43
11
89.316208723183763
21
32.813655298853305
31
0
0
ARC
5
212
100
AcDbEntity
8
0
100
AcDbCircle
10
94.774007187956855
20
25.301640166365431
30
4.1223354432930458e-43
40
9.2853613517623863
210
-1.3719139839939694e-44
220
4.2223170829577901e-44
230
1
100
AcDbArc
50
108.00000000000385
51
126.00000000000412
0
LINE
5
213
100
AcDbEntity
8
0
100
AcDbLine
10
91.904672731349351
20
34.132543586114032
30
0
11
94.774007187956855
21
25.301640166365431
31
4.1223354432930458e-43
0
LINE
5
214
100
AcDbEntity
8
0
100
AcDbLine
10
94.774007187956855
20
25.301640166365431
30
4.1223354432930458e-43
11
94.774007187956386
21
34.587001518127643
31
-4.5780366007848306e-31
0
LWPOLYLINE
5
215
100
AcDbEntity
8
0
100
AcDbPolyline
90
4
70
1
43
0.0
10
84.613926704843976
20
39.285791253852899
10
85.789497209429044
20
37.667757265102814
42
-0.078701706824619119
10
90.050570765099678
20
39.838882683884933
10
89.432536776349778
20
41.740995716475254
42
0.078701706824619119
0
LWPOLYLINE
5
216
100
AcDbEntity
8
0
100
AcDbPolyline
90
4
70
1
43
0.0
10
78.334651637846065
20
30.643110577971512
10
80.236764670436571
20
30.025076589221548
42
-0.07870170682461744
10
82.407890089218341
20
34.286150144892382
10
80.789856100468427
20
35.461720649477343
42
0.078701706824617759
0
LWPOLYLINE
5
217
100
AcDbEntity
8
0
100
AcDbPolyline
90
4
70
1
43
0.0
10
84.613926704843976
20
11.317489078876976
10
85.789497209428902
20
12.935523067626878
42
-0.078701706824614873
10
82.407890089218313
20
16.317130187837467
10
80.789856100468441
20
15.14155968325251
42
0.078701706824615053
0
LWPOLYLINE
5
218
100
AcDbEntity
8
0
100
AcDbPolyline
90
4
70
1
43
0.0
10
104.93408767106878
20
11.317489078876994
10
103.75851716648397
20
12.935523067626713
42
-0.078701706824617551
10
99.497443610813065
20
10.764397648844897
10
100.11547759956298
20
8.8622846162545983
42
0.078701706824617482
0
LWPOLYLINE
5
219
100
AcDbEntity
8
0
100
AcDbPolyline
90
4
70
1
43
0.0
10
111.21336273806669
20
30.643110577971512
10
109.31124970547654
20
30.025076589221658
42
-0.078701706824621132
10
110.05936853971909
20
25.301640166364933
10
112.05936853971909
20
25.301640166364926
42
0.078701706824620826
0
LWPOLYLINE
5
220
100
AcDbEntity
8
0
100
AcDbPolyline
90
4
70
1
43
0.0
10
94.774007187956357
20
42.587001518127529
42
-0.078701706824621132
10
100.11547759956298
20
41.740995716475268
10
99.497443610813079
20
39.838882683884933
42
0.078701706824621284
10
94.774007187956386
20
40.587001518127643
0
LWPOLYLINE
5
221
100
AcDbEntity
8
0
100
AcDbPolyline
90
52
70
1
43
0.0
10
117.49999999999977
20
7.2999999999999741
10
117.49999999999977
20
-1.6116141025314369e-14
10
112.49999999999977
20
-1.609823385706477e-14
10
112.49999999999977
20
2.9999999999999845
10
107.49999999999977
20
2.9999999999999845
10
107.49999999999977
20
-1.6116141025314353e-14
10
102.49999999999977
20
-1.609823385706477e-14
10
102.49999999999977
20
2.9999999999999845
10
97.499999999999773
20
2.9999999999999845
10
97.499999999999773
20
-1.611614102531434e-14
10
92.499999999999773
20
-1.609823385706477e-14
10
92.499999999999773
20
2.9999999999999845
10
87.499999999999773
20
2.9999999999999845
10
87.499999999999773
20
-1.6116141025314331e-14
10
82.499999999999773
20
-1.609823385706477e-14
10
82.499999999999787
20
2.9999999999999845
10
77.499999999999787
20
2.9999999999999845
10
77.499999999999787
20
-1.6116141025314318e-14
10
72.499999999999787
20
-1.6653345369377348e-14
10
72.499999999999787
20
7.2999999999999767
10
69.999999999999787
20
7.2999999999999758
10
69.999999999999787
20
12.699999999999989
10
72.499999999999787
20
12.69999999999998
10
72.499999999999787
20
17.299999999999976
10
69.999999999999787
20
17.299999999999972
10
69.999999999999787
20
22.699999999999982
10
72.499999999999787
20
22.699999999999982
10
72.499999999999787
20
27.299999999999972
10
69.999999999999787
20
27.299999999999972
10
69.999999999999787
20
32.699999999999982
10
72.499999999999787
20
32.699999999999982
10
72.499999999999787
20
37.299999999999976
10
69.999999999999787
20
37.299999999999976
10
69.999999999999787
20
42.699999999999974
10
72.499999999999787
20
42.699999999999967
10
72.499999999999773
20
47.499999999999986
10
117.49999999999977
20
47.499999999999986
10
117.49999999999977
20
42.699999999999974
10
119.99999999999977
20
42.699999999999967
10
119.99999999999977
20
37.299999999999976
10
117.49999999999977
20
37.299999999999976
10
117.49999999999977
20
32.699999999999982
10
119.99999999999977
20
32.699999999999982
10
119.99999999999977
20
27.299999999999972
10
117.49999999999977
20
27.299999999999972
10
117.49999999999977
20
22.699999999999982
10
119.99999999999977
20
22.699999999999989
10
119.99999999999977
20
17.299999999999976
10
117.49999999999977
20
17.299999999999976
10
117.49999999999977
20
12.69999999999998
10
119.99999999999977
20
12.699999999999987
10
119.99999999999977
20
7.2999999999999741
0
SPLINE
5
222
100
AcDbEntity
8
0
100
AcDbSpline
70
0
71
3
72
9
73
5
74
0
42
0.000000001
43
0.0000000001
44
0.0000000001
40
0
40
0
40
0
40
0
40
0.042586709493339835
40
0.083248512976854649
40
0.083248512976854649
40
0.083248512976854649
40
0.083248512976854649
10
28.746657901162934
20
4.3909336492237907
30
0
10
28.623416236564662
20
4.4633306963237631
30
0
10
28.382503392236956
20
4.6048524665354487
30
0
10
28.196371430219223
20
4.8130947826485206
30
0
10
28.105457358712982
20
4.914808408897863
30
0
0
LINE
5
223
100
AcDbEntity
8
0
100
AcDbLine
10
28.105457358712982
20
4.9148084088978621
30
0
11
28.105457358712982
21
2.0935250684437627
31
-2.4651903288156619e-31
0
LINE
5
224
100
AcDbEntity
8
0
100
AcDbLine
10
28.105457358712982
20
2.0935250684437627
30
-2.4651903288156619e-31
11
27.123193078393768
21
2.0935250684437614
31
0
0
LINE
5
225
100
AcDbEntity
8
0
100
AcDbLine
10
27.123193078393768
20
2.0935250684437614
30
0
11
27.123193078393768
21
10.109896795433503
31
7.3955709864469857e-31
0
LINE
5
226
100
AcDbEntity
8
0
100
AcDbLine
10
27.123193078393768
20
10.109896795433503
30
7.3955709864469857e-31
11
28.018144898767304
21
10.1098967954335
31
0
0
LINE
5
227
100
AcDbEntity
8
0
100
AcDbLine
10
28.018144898767304
20
10.1098967954335
30
0
11
28.018144898767304
21
9.3568278714833006
31
9.2444637330587321e-32
0
SPLINE
5
228
100
AcDbEntity
8
0
100
AcDbSpline
70
0
71
3
72
9
73
5
74
0
42
0.000000001
43
0.0000000001
44
0.0000000001
40
0
40
0
40
0
40
0
40
0.051297120863766019
40
0.098108108588636583
40
0.098108108588636583
40
0.098108108588636583
40
0.098108108588636583
10
28.018144898767304
20
9.3568278714832989
30
0
10
28.123746636689511
20
9.4930731714275911
30
0
10
28.325714828992847
20
9.7536485888496642
30
0
10
28.601451486977709
20
9.9338668653945366
30
0
10
28.733015590066742
20
10.019855634850003
30
0
0
SPLINE
5
229
100
AcDbEntity
8
0
100
AcDbSpline
70
0
71
3
72
9
73
5
74
0
42
0.000000001
43
0.0000000001
44
0.0000000001
40
0
40
0
40
0
40
0
40
0.047079748323424334
40
0.099893637358428988
40
0.099893637358428988
40
0.099893637358428988
40
0.099893637358428988
10
28.733015590066742
20
10.019855634850003
30
0
10
28.877734742715294
20
10.084259850062889
30
0
10
29.184799310142047
20
10.220912477741235
30
0
10
29.521104101492281
20
10.233964348937805
30
0
10
29.698908858651947
20
10.24086488930557
30
0
0
SPLINE
5
230
100
AcDbEntity
8
0
100
AcDbSpline
70
0
71
3
72
9
73
5
74
0
42
0.000000001
43
0.0000000001
44
0.0000000001
40
0
40
0
40
0
40
0
40
0.070499739169959066
40
0.1379999716213009
40
0.1379999716213009
40
0.1379999716213009
40
0.1379999716213009
10
29.698908858651947
20
10.24086488930557
30
0
10
29.936863908335269
20
10.226379389149276
30
0
10
30.402649888397946
20
10.198024694025243
30
0
10
30.809561154764893
20
9.9702734819695706
30
0
10
31.008594565744232
20
9.8588730260548321
30
0
0
SPLINE
5
231
100
AcDbEntity
8
0
100
AcDbSpline
70
0
71
3
72
9
73
5
74
0
42
0.000000001
43
0.0000000001
44
0.0000000001
40
0
40
0
40
0
40
0
40
0.067820329203293367
40
0.13922269914840996
40
0.13922269914840996
40
0.13922269914840996
40
0.13922269914840996
10
31.008594565744232
20
9.8588730260548321
30
0
10
31.187338512876146
20
9.7156177495570475
30
0
10
31.554267058763187
20
9.4215409366667728
30
0
10
31.759890177980239
20
8.9982168548220312
30
0
10
31.865346961374115
20
8.7811089917835918
30
0
0
SPLINE
5
232
100
AcDbEntity
8
0
100
AcDbSpline
70
0
71
3
72
9
73
5
74
0
42
0.000000001
43
0.0000000001
44
0.0000000001
40
0
40
0
40
0
40
0
40
0.076077613393778276
40
0.15600948680721041
40
0.15600948680721041
40
0.15600948680721041
40
0.15600948680721041
10
31.865346961374115
20
8.7811089917835918
30
0
10
31.9496894791478
20
8.5403567770661173
30
0
10
32.122647493035444
20
8.0466553083914487
30
0
10
32.143757018465841
20
7.523772051754686
30
0
10
32.154572539682221
20
7.255871431511375
30
0
0
SPLINE
5
233
100
AcDbEntity
8
0
100
AcDbSpline
70
0
71
3
72
9
73
5
74
0
42
0.000000001
43
0.0000000001
44
0.0000000001
40
0
40
0
40
0
40
0
40
0.08489178809596179
40
0.16423823766389745
40
0.16423823766389745
40
0.16423823766389745
40
0.16423823766389745
10
32.154572539682221
20
7.255871431511375
30
0
10
32.143162197598649
20
6.9710670301776103
30
0
10
32.121086864789902
20
6.4200623452356167
30
0
10
31.928417074945877
20
5.9036993037275112
30
0
10
31.83533483063681
20
5.6542350217518669
30
0
0
SPLINE
5
234
100
AcDbEntity
8
0
100
AcDbSpline
70
0
71
3
72
9
73
5
74
0
42
0.000000001
43
0.0000000001
44
0.0000000001
40
0
40
0
40
0
40
0
40
0.0740843246289698
40
0.14489055047082855
40
0.14489055047082855
40
0.14489055047082855
40
0.14489055047082855
10
31.83533483063681
20
5.6542350217518669
30
0
10
31.719259353409011
20
5.4322354211785919
30
0
10
31.492244531097676
20
4.9980593050776703
30
0
10
31.0995456867516
20
4.7057007151573851
30
0
10
30.907638602609467
20
4.5628286763844352
30
0
0
SPLINE
5
235
100
AcDbEntity
8
0
100
AcDbSpline
70
0
71
3
72
9
73
5
74
0
42
0.000000001
43
0.0000000001
44
0.0000000001
40
0
40
0
40
0
40
0
40
0.06859066452504442
40
0.13482507782041731
40
0.13482507782041731
40
0.13482507782041731
40
0.13482507782041731
10
30.907638602609467
20
4.5628286763844352
30
0
10
30.704227415284421
20
4.4522210294089684
30
0
10
30.304392695056137
20
4.234805369212892
30
0
10
29.850801722136211
20
4.2004461020376107
30
0
10
29.627969794626068
20
4.1835667058644157
30
0
0
SPLINE
5
236
100
AcDbEntity
8
0
100
AcDbSpline
70
0
71
3
72
9
73
5
74
0
42
0.000000001
43
0.0000000001
44
0.0000000001
40
0
40
0
40
0
40
0
40
0.046876918371258791
40
0.091234592780048251
40
0.091234592780048251
40
0.091234592780048251
40
0.091234592780048251
10
29.627969794626068
20
4.1835667058644157
30
0
10
29.470369821823255
20
4.1912120142125788
30
0
10
29.163639562232902
20
4.2060917592567995
30
0
10
28.883069343641566
20
4.3304644459111676
30
0
10
28.746657901162934
20
4.3909336492237907
30
0
0
LINE
5
237
100
AcDbEntity
8
0
100
AcDbLine
10
21.859891944284271
20
16.800208227318262
30
0
11
19.546112351770233
21
23.610576526802504
31
0
0
LINE
5
238
100
AcDbEntity
8
0
100
AcDbLine
10
19.546112351770233
20
23.610576526802504
30
0
11
19.546112351770233
21
16.800208227318262
31
-2.4651903288156619e-31
0
LINE
5
239
100
AcDbEntity
8
0
100
AcDbLine
10
19.546112351770233
20
16.800208227318262
30
-2.4651903288156619e-31
11
18.525648646707367
21
16.800208227318262
31
0
0
LINE
5
240
100
AcDbEntity
8
0
100
AcDbLine
10
18.525648646707367
20
16.800208227318262
30
0
11
18.525648646707367
21
24.800207750481093
31
-7.3955709864469857e-31
0
LINE
5
241
100
AcDbEntity
8
0
100
AcDbLine
10
18.525648646707367
20
24.800207750481093
30
-7.3955709864469857e-31
11
20.119100146646332
21
24.800207750481093
31
0
0
LINE
5
242
100
AcDbEntity
8
0
100
AcDbLine
10
20.119100146646332
20
24.800207750481093
30
0
11
22.012688451165985
21
19.135816232841943
31
0
0
SPLINE
5
243
100
AcDbEntity
8
0
100
AcDbSpline
70
0
71
3
72
9
73
5
74
0
42
0.000000001
43
0.0000000001
44
0.0000000001
40
0
40
0
40
0
40
0
40
0.072780926536069324
40
0.1244278899809465
40
0.1244278899809465
40
0.1244278899809465
40
0.1244278899809465
10
22.012688451165985
20
19.13581623284194
30
0
10
22.088889039061968
20
18.905485603367758
30
0
10
22.219163258125477
20
18.511707238795125
30
0
10
22.343196966205131
20
18.115921970094867
30
0
10
22.394680314416718
20
17.951641218346094
30
0
0
SPLINE
5
244
100
AcDbEntity
8
0
100
AcDbSpline
70
0
71
3
72
9
73
5
74
0
42
0.000000001
43
0.0000000001
44
0.0000000001
40
0
40
0
40
0
40
0
40
0.056646836296989314
40
0.1351219731955812
40
0.1351219731955812
40
0.1351219731955812
40
0.1351219731955812
10
22.394680314416718
20
17.951641218346094
30
0
10
22.452429265457418
20
18.131420123423613
30
0
10
22.590180157205083
20
18.560253964481497
30
0
10
22.735772038919364
20
18.986493859814779
30
0
10
22.820327811593842
20
19.234042303245992
30
0
0
LINE
5
245
100
AcDbEntity
8
0
100
AcDbLine
10
22.820327811593842
20
19.234042303245992
30
0
11
24.735744529123139
21
24.800207750481089
31
0
0
LINE
5
246
100
AcDbEntity
8
0
100
AcDbLine
10
24.735744529123139
20
24.800207750481089
30
0
11
26.160028510446381
21
24.800207750481093
31
0
0
LINE
5
247
100
AcDbEntity
8
0
100
AcDbLine
10
26.160028510446381
20
24.800207750481093
30
0
11
26.160028510446381
21
16.800208227318262
31
7.3955709864469857e-31
0
LINE
5
248
100
AcDbEntity
8
0
100
AcDbLine
10
26.160028510446381
20
16.800208227318262
30
7.3955709864469857e-31
11
25.139563613290619
21
16.800208227318262
31
0
0
LINE
5
249
100
AcDbEntity
8
0
100
AcDbLine
10
25.139563613290619
20
16.800208227318262
30
0
11
25.139563613290619
21
23.495979444664442
31
-4.9303806576313238e-31
0
LINE
5
250
100
AcDbEntity
8
0
100
AcDbLine
10
25.139563613290619
20
23.495979444664442
30
-4.9303806576313238e-31
11
22.814870410318207
21
16.800208227318262
31
0
0
LINE
5
251
100
AcDbEntity
8
0
100
AcDbLine
10
22.814870410318207
20
16.800208227318262
30
0
11
21.859891944284271
21
16.800208227318262
31
0
0
SPLINE
5
252
100
AcDbEntity
8
0
100
AcDbSpline
70
0
71
3
72
9
73
5
74
0
42
0.000000001
43
0.0000000001
44
0.0000000001
40
0
40
0
40
0
40
0
40
0.066533296568065045
40
0.13430723583783769
40
0.13430723583783769
40
0.13430723583783769
40
0.13430723583783769
10
21.827149920816254
20
30.470058457535227
30
0
10
22.00014456753518
20
30.322040206529781
30
4.4408920985006262e-15
10
22.349359682583525
20
30.023243616378036
30
0
10
22.807449088748722
20
29.982908937710725
30
0
10
23.038609557504486
20
29.962555305641612
30
0
0
SPLINE
5
253
100
AcDbEntity
8
0
100
AcDbSpline
70
0
71
3
72
9
73
5
74
0
42
0.000000001
43
0.0000000001
44
0.0000000001
40
0
40
0
40
0
40
0
40
0.050568226553816271
40
0.097791484244370883
40
0.097791484244370883
40
0.097791484244370883
40
0.097791484244370883
10
23.038609557504486
20
29.962555305641612
30
0
10
23.209749203860689
20
29.972675288098639
30
0
10
23.540708012796149
20
29.99224584005276
30
0
10
23.824031165955041
20
30.163582478055162
30
0
10
23.9608471921633
20
30.246320502441844
30
0
0
SPLINE
5
254
100
AcDbEntity
8
0
100
AcDbSpline
70
0
71
3
72
9
73
5
74
0
42
0.000000001
43
0.0000000001
44
0.0000000001
40
0
40
0
40
0
40
0
40
0.050292977367876572
40
0.11014714084818861
40
0.11014714084818861
40
0.11014714084818861
40
0.11014714084818861
10
23.9608471921633
20
30.246320502441844
30
0
10
24.084212427884673
20
30.362764049002628
30
0
10
24.354395835309084
20
30.617788197405606
30
0
10
24.491872132224689
20
30.964035236902969
30
0
10
24.566577010507416
20
31.1521865293202
30
0
0
LINE
5
255
100
AcDbEntity
8
0
100
AcDbLine
10
24.566577010507416
20
31.1521865293202
30
0
11
25.581583314294647
21
31.026675240677317
31
0
0
SPLINE
5
256
100
AcDbEntity
8
0
100
AcDbSpline
70
0
71
3
72
9
73
5
74
0
42
0.000000001
43
0.0000000001
44
0.0000000001
40
0
40
0
40
0
40
0
40
0.086093258390142591
40
0.16660641103607315
40
0.16660641103607315
40
0.16660641103607315
40
0.16660641103607315
10
25.581583314294647
20
31.026675240677317
30
0
10
25.488330708498765
20
30.749745661430666
30
0
10
25.307869633358493
20
30.213835600982819
30
0
10
24.892714243628646
20
29.831036529543585
30
0
10
24.692088895196747
20
29.646047489326914
30
0
0
SPLINE
5
257
100
AcDbEntity
8
0
100
AcDbSpline
70
0
71
3
72
9
73
5
74
0
42
0.000000001
43
0.0000000001
44
0.0000000001
40
0
40
0
40
0
40
0
40
0.082609563192689348
40
0.17537660421644177
40
0.17537660421644177
40
0.17537660421644177
40
0.17537660421644177
10
24.692088895196747
20
29.646047489326914
30
0
10
24.451846401189982
20
29.50293070811767
30
0
10
23.941821760469885
20
29.199099842479036
30
0
10
23.347515714530434
20
29.170201817107255
30
0
10
23.033152156228851
20
29.154915945213755
30
-4.4408920985006262e-15
0
SPLINE
5
258
100
AcDbEntity
8
0
100
AcDbSpline
70
0
71
3
72
9
73
5
74
0
42
0.000000001
43
0.0000000001
44
0.0000000001
40
0
40
0
40
0
40
0
40
0.11565261833560404
40
0.22116318144354402
40
0.22116318144354402
40
0.22116318144354402
40
0.22116318144354402
10
23.033152156228851
20
29.154915945213755
30
-4.4408920985006262e-15
10
22.637601934869707
20
29.181127611042722
30
0
10
21.881188922908052
20
29.231252333587683
30
0
10
21.295971961524593
20
29.709730622546463
30
0
10
21.01678185975058
20
29.937998788040598
30
0
0
SPLINE
5
259
100
AcDbEntity
8
0
100
AcDbSpline
70
0
71
3
72
9
73
5
74
0
42
0.000000001
43
0.0000000001
44
0.0000000001
40
0
40
0
40
0
40
0
40
0.10940453761730512
40
0.23635753905784229
40
0.23635753905784229
40
0.23635753905784229
40
0.23635753905784229
10
21.01678185975058
20
29.937998788040598
30
0
10
20.799842831341842
20
30.240629870868933
30
0
10
20.331167801978346
20
30.894433995794021
30
0
10
20.29260877474648
20
31.701147346276134
30
0
10
20.271897845620941
20
32.134451405685866
30
0
0
SPLINE
5
260
100
AcDbEntity
8
0
100
AcDbSpline
70
0
71
3
72
9
73
5
74
0
42
0.000000001
43
0.0000000001
44
0.0000000001
40
0
40
0
40
0
40
0
40
0.13123465659872641
40
0.24359670874323708
40
0.24359670874323708
40
0.24359670874323708
40
0.24359670874323708
10
20.271897845620941
20
32.134451405685866
30
0
10
20.292326793913304
20
32.582125259525547
30
0
10
20.330246842596182
20
33.413093848251272
30
0
10
20.805671263356004
20
34.091603187621146
30
0
10
21.024966769571137
20
34.404574172180617
30
0
0
SPLINE
5
261
100
AcDbEntity
8
0
100
AcDbSpline
70
0
71
3
72
9
73
5
74
0
42
0.000000001
43
0.0000000001
44
0.0000000001
40
0
40
0
40
0
40
0
40
0.10559484918137427
40
0.21631901648036195
40
0.21631901648036195
40
0.21631901648036195
40
0.21631901648036195
10
21.024966769571137
20
34.404574172180617
30
0
10
21.299179982222036
20
34.640098787967958
30
0
10
21.86092643980421
20
35.122588735527074
30
0
10
22.600186888923773
20
35.181870438539605
30
0
10
22.97858171975119
20
35.212214128654921
30
0
0
SPLINE
5
262
100
AcDbEntity
8
0
100
AcDbSpline
70
0
71
3
72
9
73
5
74
0
42
0.000000001
43
0.0000000001
44
0.0000000001
40
0
40
0
40
0
40
0
40
0.10743040159478247
40
0.21053334684972841
40
0.21053334684972841
40
0.21053334684972841
40
0.21053334684972841
10
22.97858171975119
20
35.212214128654921
30
0
10
23.345650118987876
20
35.182040716050274
30
0
10
24.065000856459431
20
35.122909320772678
30
0
10
24.610489359020256
20
34.651704735010384
30
0
10
24.877627425546478
20
34.420945183914625
30
0
0
SPLINE
5
263
100
AcDbEntity
8
0
100
AcDbSpline
70
0
71
3
72
9
73
5
74
0
42
0.000000001
43
0.0000000001
44
0.0000000001
40
0
40
0
40
0
40
0
40
0.1100937646739145
40
0.23883947100982522
40
0.23883947100982522
40
0.23883947100982522
40
0.23883947100982522
10
24.877627425546478
20
34.420945183914625
30
0
10
25.092150221996707
20
34.114081221338239
30
0
10
25.557539986580355
20
33.448364804874487
30
0
10
25.594436423306732
20
32.633648855983502
30
0
10
25.614325337762665
20
32.194478647392714
30
0
0
SPLINE
5
264
100
AcDbEntity
8
0
100
AcDbSpline
70
0
71
3
72
9
73
5
74
0
42
0.000000001
43
0.0000000001
44
0.0000000001
40
0
40
0
40
0
40
0
40
0.010914940782262676
40
0.026200071040931163
40
0.026200071040931163
40
0.026200071040931163
40
0.026200071040931163
10
25.614325337762665
20
32.194478647392714
30
0
10
25.613978493108039
20
32.158096232156645
30
0
10
25.613145932055001
20
32.070764391989947
30
0
10
25.610444154450398
20
31.983469270688168
30
0
10
25.60886793648703
20
31.932541267555674
30
0
0
LINE
5
265
100
AcDbEntity
8
0
100
AcDbLine
10
25.60886793648703
20
31.932541267555674
30
0
11
21.286904149408173
21
31.932541267555674
31
0
0
SPLINE
5
266
100
AcDbEntity
8
0
100
AcDbSpline
70
0
71
3
72
9
73
5
74
0
42
0.000000001
43
0.0000000001
44
0.0000000001
40
0
40
0
40
0
40
0
40
0.085859906148033044
40
0.15841532610895034
40
0.15841532610895034
40
0.15841532610895034
40
0.15841532610895034
10
21.286904149408173
20
31.932541267555674
30
0
10
21.315289285730088
20
31.641553005311923
30
0
10
21.367661118274732
20
31.104666785360276
30
0
10
21.682809550431621
20
30.669409563766287
30
0
10
21.827149920816254
20
30.470058457535227
30
0
0
SPLINE
5
267
100
AcDbEntity
8
0
100
AcDbSpline
70
0
71
3
72
9
73
5
74
0
42
0.000000001
43
0.0000000001
44
0.0000000001
40
0
40
0
40
0
40
0
40
0.066533428441757622
40
0.13430715582461566
40
0.13430715582461566
40
0.13430715582461566
40
0.13430715582461566
10
28.970395856256317
20
17.984383241814111
30
0
10
29.143390893390972
20
17.836364837569075
30
0
10
29.492605896337469
20
17.537568708323295
30
0
10
29.950694714030895
20
17.497232602506955
30
0
10
30.181854300851654
20
17.476878301781152
30
0
0
SPLINE
5
268
100
AcDbEntity
8
0
100
AcDbSpline
70
0
71
3
72
9
73
5
74
0
42
0.000000001
43
0.0000000001
44
0.0000000001
40
0
40
0
40
0
40
0
40
0.050568462614603391
40
0.097791640750972353
40
0.097791640750972353
40
0.097791640750972353
40
0.097791640750972353
10
30.181854300851654
20
17.476878301781152
30
0
10
30.352994823302275
20
17.486998062954445
30
0
10
30.683954311174709
20
17.506568126942486
30
0
10
30.967277522671111
20
17.677905828468305
30
0
10
31.104093127603363
20
17.760644094627832
30
0
0
SPLINE
5
269
100
AcDbEntity
8
0
100
AcDbSpline
70
0
71
3
72
9
73
5
74
0
42
0.000000001
43
0.0000000001
44
0.0000000001
40
0
40
0
40
0
40
0
40
0.050293021022712825
40
0.11014713206242258
40
0.11014713206242258
40
0.11014713206242258
40
0.11014713206242258
10
31.104093127603363
20
17.760644094627832
30
0
10
31.227458418926915
20
17.877087819273662
30
0
10
31.497641692053374
20
18.1321121159969
30
0
10
31.635117306123973
20
18.478359427283738
30
0
10
31.709821753854584
20
18.666510717552633
30
0
0
LINE
5
270
100
AcDbEntity
8
0
100
AcDbLine
10
31.709821753854584
20
18.666510717552633
30
0
11
32.724829249734711
21
18.541000024956197
31
0
0
SPLINE
5
271
100
AcDbEntity
8
0
100
AcDbSpline
70
0
71
3
72
9
73
5
74
0
42
0.000000001
43
0.0000000001
44
0.0000000001
40
0
40
0
40
0
40
0
40
0.08609357924020658
40
0.16660638849551537
40
0.16660638849551537
40
0.16660638849551537
40
0.16660638849551537
10
32.724829249734711
20
18.541000024956197
30
0
10
32.631576517438901
20
18.26406924840979
30
0
10
32.451115894448691
20
17.72815894068605
30
0
10
32.035959726577552
20
17.345360729968387
30
0
10
31.83533483063681
20
17.160372869652246
30
0
0
SPLINE
5
272
100
AcDbEntity
8
0
100
AcDbSpline
70
0
71
3
72
9
73
5
74
0
42
0.000000001
43
0.0000000001
44
0.0000000001
40
0
40
0
40
0
40
0
40
0.082609509644422652
40
0.17537655066817509
40
0.17537655066817509
40
0.17537655066817509
40
0.17537655066817509
10
31.83533483063681
20
17.160372869652246
30
0
10
31.595092783775264
20
17.017255598899212
30
0
10
31.085068917450513
20
16.713423589803082
30
0
10
30.490762915029514
20
16.684525855855469
30
0
10
30.17639928376181
20
16.669240133446191
30
0
0
SPLINE
5
273
100
AcDbEntity
8
0
100
AcDbSpline
70
0
71
3
72
9
73
5
74
0
42
0.000000001
43
0.0000000001
44
0.0000000001
40
0
40
0
40
0
40
0
40
0.11565261833560404
40
0.22116331365547484
40
0.22116331365547484
40
0.22116331365547484
40
0.22116331365547484
10
30.17639928376181
20
16.669240133446191
30
0
10
29.78084908068606
20
16.695451835981011
30
0
10
29.024435651502177
20
16.745576658683511
30
0
10
28.439218276996844
20
17.224055157250898
30
0
10
28.160027795190643
20
17.452323572319482
30
0
0
SPLINE
5
274
100
AcDbEntity
8
0
100
AcDbSpline
70
0
71
3
72
9
73
5
74
0
42
0.000000001
43
0.0000000001
44
0.0000000001
40
0
40
0
40
0
40
0
40
0.10940448636952674
40
0.23635754676997658
40
0.23635754676997658
40
0.23635754676997658
40
0.23635754676997658
10
28.160027795190643
20
17.452323572319482
30
0
10
27.943088770624303
20
17.754954454210164
30
0
10
27.474413514730465
20
18.408758472620498
30
0
10
27.435854638189735
20
19.215471901401024
30
0
10
27.415143781061005
20
19.648776189964742
30
0
0
SPLINE
5
275
100
AcDbEntity
8
0
100
AcDbSpline
70
0
71
3
72
9
73
5
74
0
42
0.000000001
43
0.0000000001
44
0.0000000001
40
0
40
0
40
0
40
0
40
0.13123453862249856
40
0.24359665068907402
40
0.24359665068907402
40
0.24359665068907402
40
0.24359665068907402
10
27.415143781061005
20
19.648776189964742
30
0
10
27.435572717135862
20
20.096449675557764
30
0
10
27.473492768192624
20
20.927418129727119
30
0
10
27.948917895686776
20
21.605926832125313
30
0
10
28.168213897104096
20
21.918897764366591
30
0
0
SPLINE
5
276
100
AcDbEntity
8
0
100
AcDbSpline
70
0
71
3
72
9
73
5
74
0
42
0.000000001
43
0.0000000001
44
0.0000000001
40
0
40
0
40
0
40
0
40
0.10559501520967085
40
0.21631917163951841
40
0.21631917163951841
40
0.21631917163951841
40
0.21631917163951841
10
28.168213897104096
20
21.918897764366591
30
0
10
28.442427450945779
20
22.154422923322727
30
0
10
29.004174127165108
20
22.636913571053519
30
0
10
29.743435198580137
20
22.696194862286781
30
0
10
30.121830039377045
20
22.726538316887343
30
0
0
SPLINE
5
277
100
AcDbEntity
8
0
100
AcDbSpline
70
0
71
3
72
9
73
5
74
0
42
0.000000001
43
0.0000000001
44
0.0000000001
40
0
40
0
40
0
40
0
40
0.10743014530234594
40
0.21053302738340282
40
0.21053302738340282
40
0.21053302738340282
40
0.21053302738340282
10
30.121830039377045
20
22.726538316887343
30
0
10
30.488897666116372
20
22.696365331558344
30
0
10
31.208247514284015
20
22.637234722280745
30
0
10
31.753734569492359
20
22.166029862330923
30
0
10
32.020872168893646
20
21.935269968193495
30
0
0
SPLINE
5
278
100
AcDbEntity
8
0
100
AcDbSpline
70
0
71
3
72
9
73
5
74
0
42
0.000000001
43
0.0000000001
44
0.0000000001
40
0
40
0
40
0
40
0
40
0.11009388432827827
40
0.23883963260259944
40
0.23883963260259944
40
0.23883963260259944
40
0.23883963260259944
10
32.020872168893646
20
21.935269968193495
30
0
10
32.235396024796074
20
21.628406112815597
30
0
10
32.700787896840922
20
20.962690202030451
30
4.4408920985006262e-15
10
32.737683054955845
20
20.147973367528369
30
4.4408920985006262e-15
10
32.757571273202728
20
19.708802835625143
30
0
0
SPLINE
5
279
100
AcDbEntity
8
0
100
AcDbSpline
70
0
71
3
72
9
73
5
74
0
42
0.000000001
43
0.0000000001
44
0.0000000001
40
0
40
0
40
0
40
0
40
0.010914939292165325
40
0.026200066359577792
40
0.026200066359577792
40
0.026200066359577792
40
0.026200066359577792
10
32.757571273202728
20
19.708802835625143
30
0
10
32.757224849596753
20
19.67242042093644
30
0
10
32.75639329925805
20
19.585088585765366
30
0
10
32.753692123128225
20
19.497793459994625
30
0
10
32.752116256112885
20
19.446865455788107
30
0
0
LINE
5
280
100
AcDbEntity
8
0
100
AcDbLine
10
32.752116256112885
20
19.446865455788107
30
0
11
28.430150084848236
21
19.446865455788107
31
0
0
SPLINE
5
281
100
AcDbEntity
8
0
100
AcDbSpline
70
0
71
3
72
9
73
5
74
0
42
0.000000001
43
0.0000000001
44
0.0000000001
40
0
40
0
40
0
40
0
40
0.085859964677462569
40
0.1584152828749385
40
0.1584152828749385
40
0.1584152828749385
40
0.1584152828749385
10
28.430150084848236
20
19.446865455788107
30
0
10
28.458535112412349
20
19.155876942085108
30
0
10
28.510906694300061
20
18.618990770692143
30
0
10
28.826055484801103
20
18.183733942615309
30
4.4408920985006262e-15
10
28.970395856256317
20
17.984383241814111
30
0
0
SPLINE
5
282
100
AcDbEntity
8
0
100
AcDbSpline
70
0
71
3
72
9
73
5
74
0
42
0.000000001
43
0.0000000001
44
0.0000000001
40
0
40
0
40
0
40
0
40
0.012754689214969401
40
0.02583814278448239
40
0.02583814278448239
40
0.02583814278448239
40
0.02583814278448239
10
34.547474913949799
20
5.4168535634693962
30
0
10
34.567726832468807
20
5.3787364135819962
30
0
10
34.608752682141379
20
5.3015196076897455
30
-4.4408920985006262e-15
10
34.680375406735891
20
5.2512921166071349
30
0
10
34.716642432565521
20
5.2258588239369255
30
0
0
SPLINE
5
283
100
AcDbEntity
8
0
100
AcDbSpline
70
0
71
3
72
9
73
5
74
0
42
0.000000001
43
0.0000000001
44
0.0000000001
40
0
40
0
40
0
40
0
40
0.015216944121006068
40
0.034602523688485404
40
0.034602523688485404
40
0.034602523688485404
40
0.034602523688485404
10
34.716642432565521
20
5.2258588239369255
30
0
10
34.763506835914121
20
5.2052444204114403
30
0
10
34.870074003022147
20
5.158368360366631
30
0
10
34.986835799231876
20
5.1561565253400223
30
0
10
35.052249961252045
20
5.1549173757252555
30
0
0
SPLINE
5
284
100
AcDbEntity
8
0
100
AcDbSpline
70
0
71
3
72
9
73
5
74
0
42
0.000000001
43
0.0000000001
44
0.0000000001
40
0
40
0
40
0
40
0
40
0.018987374049770994
40
0.043303758049753859
40
0.043303758049753859
40
0.043303758049753859
40
0.043303758049753859
10
35.052249961252045
20
5.1549173757252555
30
0
10
35.115540154736486
20
5.1571642722897506
30
0
10
35.259883612572615
20
5.1622886810119253
30
0
10
35.402993237921656
20
5.1820309262309907
30
0
10
35.483353667611908
20
5.1931168004689079
30
0
0
LINE
5
285
100
AcDbEntity
8
0
100
AcDbLine
10
35.483353667611908
20
5.1931168004689079
30
0
11
35.625236564035248
21
4.3254496022877555
31
6.1629758220391547e-32
0
SPLINE
5
286
100
AcDbEntity
8
0
100
AcDbSpline
70
0
71
3
72
9
73
5
74
0
42
0.000000001
43
0.0000000001
44
0.0000000001
40
0
40
0
40
0
40
0
40
0.039832390703480457
40
0.074825530352157998
40
0.074825530352157998
40
0.074825530352157998
40
0.074825530352157998
10
35.625236564035248
20
4.3254496022877555
30
0
10
35.494680482532175
20
4.3000162822391443
30
0
10
35.249429623453977
20
4.2522395450751462
30
0
10
34.999817038476479
20
4.2426299863114449
30
0
10
34.883082442636322
20
4.2381359502491813
30
0
0
SPLINE
5
287
100
AcDbEntity
8
0
100
AcDbSpline
70
0
71
3
72
9
73
5
74
0
42
0.000000001
43
0.0000000001
44
0.0000000001
40
0
40
0
40
0
40
0
40
0.047664039417502101
40
0.085335641071494175
40
0.085335641071494175
40
0.085335641071494175
40
0.085335641071494175
10
34.883082442636322
20
4.2381359502491813
30
0
10
34.72241165141552
20
4.2412256946793017
30
0
10
34.434753594359265
20
4.2467574398883459
30
0
10
34.170340428148791
20
4.3581354205717373
30
0
10
34.053614669198822
20
4.407303468864904
30
0
0
SPLINE
5
288
100
AcDbEntity
8
0
100
AcDbSpline
70
0
71
3
72
9
73
5
74
0
42
0.000000001
43
0.0000000001
44
0.0000000001
40
0
40
0
40
0
40
0
40
0.03183392254219914
40
0.061631561457372572
40
0.061631561457372572
40
0.061631561457372572
40
0.061631561457372572
10
34.053614669198822
20
4.407303468864904
30
0
10
33.963386632648238
20
4.4665162400027727
30
0
10
33.788702071784797
20
4.5811541875760655
30
0
10
33.687708954030484
20
4.7637637600777607
30
4.4408920985006262e-15
10
33.638880782480072
20
4.8520518705067497
30
0
0
SPLINE
5
289
100
AcDbEntity
8
0
100
AcDbSpline
70
0
71
3
72
9
73
5
74
0
42
0.000000001
43
0.0000000001
44
0.0000000001
40
0
40
0
40
0
40
0
40
0.043706960834636738
40
0.11696082456889936
40
0.11696082456889936
40
0.11696082456889936
40
0.11696082456889936
10
33.638880782480072
20
4.8520518705067497
30
0
10
33.604374424640746
20
4.994055592956065
30
0
10
33.512034623641391
20
5.374060794698722
30
0
10
33.516211479767307
20
5.7661192226125992
30
0
10
33.518827491159271
20
6.0116697713551384
30
0
0
LINE
5
290
100
AcDbEntity
8
0
100
AcDbLine
10
33.518827491159271
20
6.0116697713551384
30
0
11
33.518827491159271
21
9.3459130689320364
31
-1.2325951644078309e-31
0
LINE
5
291
100
AcDbEntity
8
0
100
AcDbLine
10
33.518827491159271
20
9.3459130689320364
30
-1.2325951644078309e-31
11
32.798498206491303
21
9.3459130689320293
31
0
0
LINE
5
292
100
AcDbEntity
8
0
100
AcDbLine
10
32.798498206491303
20
9.3459130689320293
30
0
11
32.798498206491303
21
10.109896795433498
31
-9.2444637330587321e-32
0
LINE
5
293
100
AcDbEntity
8
0
100
AcDbLine
10
32.798498206491303
20
10.109896795433498
30
-9.2444637330587321e-32
11
33.518827491159271
21
10.1098967954335
31
0
0
LINE
5
294
100
AcDbEntity
8
0
100
AcDbLine
10
33.518827491159271
20
10.1098967954335
30
0
11
33.518827491159271
21
11.545095579308011
31
6.1629758220391547e-32
0
LINE
5
295
100
AcDbEntity
8
0
100
AcDbLine
10
33.518827491159271
20
11.545095579308011
30
6.1629758220391547e-32
11
34.495633178109955
21
12.134452001732324
31
0
0
LINE
5
296
100
AcDbEntity
8
0
100
AcDbLine
10
34.495633178109955
20
12.134452001732324
30
0
11
34.495633178109955
21
10.109896795433496
31
1.8488927466117464e-31
0
LINE
5
297
100
AcDbEntity
8
0
100
AcDbLine
10
34.495633178109955
20
10.109896795433496
30
1.8488927466117464e-31
11
35.483353667611908
21
10.1098967954335
31
0
0
LINE
5
298
100
AcDbEntity
8
0
100
AcDbLine
10
35.483353667611908
20
10.1098967954335
30
0
11
35.483353667611908
21
9.3459130689320311
31
9.2444637330587321e-32
0
LINE
5
299
100
AcDbEntity
8
0
100
AcDbLine
10
35.483353667611908
20
9.3459130689320311
30
9.2444637330587321e-32
11
34.495633178109955
21
9.3459130689320293
31
0
0
LINE
5
300
100
AcDbEntity
8
0
100
AcDbLine
10
34.495633178109955
20
9.3459130689320293
30
0
11
34.495633178109955
21
5.9571005269703647
31
3.6977854932234928e-31
0
SPLINE
5
301
100
AcDbEntity
8
0
100
AcDbSpline
70
0
71
3
72
9
73
5
74
0
42
0.000000001
43
0.0000000001
44
0.0000000001
40
0
40
0
40
0
40
0
40
0.034540181832347604
40
0.054432701581478338
40
0.054432701581478338
40
0.054432701581478338
40
0.054432701581478338
10
34.495633178109955
20
5.9571005269703727
30
0
10
34.494184142938728
20
5.8413688315492776
30
0
10
34.491900573632712
20
5.658984474948249
30
0
10
34.532600909641296
20
5.4816578634396942
30
0
10
34.547474913949799
20
5.4168535634693962
30
0
0
SPLINE
5
302
100
AcDbEntity
8
0
100
AcDbSpline
70
0
71
3
72
9
73
5
74
0
42
0.000000001
43
0.0000000001
44
0.0000000001
40
0
40
0
40
0
40
0
40
0.05265123600690548
40
0.12261315761336716
40
0.12261315761336716
40
0.12261315761336716
40
0.12261315761336716
10
18.954025440568756
20
8.5328151151356426
30
0
10
18.908098497201923
20
8.3627380858410731
30
0
10
18.801144739364226
20
7.9666660620699083
30
0
10
18.797723981130467
20
7.5557947872412603
30
0
10
18.795772128457855
20
7.3213554784474102
30
0
0
LINE
5
303
100
AcDbEntity
8
0
100
AcDbLine
10
18.795772128457859
20
7.3213554784474102
30
0
11
18.795772128457855
21
4.3145347997364789
31
-1.2325951644078309e-31
0
LINE
5
304
100
AcDbEntity
8
0
100
AcDbLine
10
18.795772128457855
20
4.3145347997364789
30
-1.2325951644078309e-31
11
17.813507252092194
21
4.314534799736486
31
0
0
LINE
5
305
100
AcDbEntity
8
0
100
AcDbLine
10
17.813507252092194
20
4.314534799736486
30
0
11
17.813507252092194
21
10.109896795433503
31
7.3955709864469857e-31
0
LINE
5
306
100
AcDbEntity
8
0
100
AcDbLine
10
17.813507252092194
20
10.109896795433503
30
7.3955709864469857e-31
11
18.692088656778168
21
10.1098967954335
31
0
0
LINE
5
307
100
AcDbEntity
8
0
100
AcDbLine
10
18.692088656778168
20
10.1098967954335
30
0
11
18.692088656778168
21
9.2967988416371092
31
0
0
SPLINE
5
308
100
AcDbEntity
8
0
100
AcDbSpline
70
0
71
3
72
9
73
5
74
0
42
0.000000001
43
0.0000000001
44
0.0000000001
40
0
40
0
40
0
40
0
40
0.049852679359387898
40
0.10053640044563036
40
0.10053640044563036
40
0.10053640044563036
40
0.10053640044563036
10
18.692088656778168
20
9.2967988416371075
30
0
10
18.791157199478931
20
9.4320976416753357
30
0
10
18.990945752642283
20
9.7049506661315892
30
0
10
19.274781819549663
20
9.8889141432982743
30
0
10
19.41787295853598
20
9.9816562101063457
30
0
0
SPLINE
5
309
100
AcDbEntity
8
0
100
AcDbSpline
70
0
71
3
72
9
73
5
74
0
42
0.000000001
43
0.0000000001
44
0.0000000001
40
0
40
0
40
0
40
0
40
0.052187316280517357
40
0.10727647526665887
40
0.10727647526665887
40
0.10727647526665887
40
0.10727647526665887
10
19.41787295853598
20
9.9816562101063457
30
0
10
19.5765584564985
20
10.057243352362439
30
0
10
19.902753059145823
20
10.212620612099794
30
0
10
20.263829607838293
20
10.231281867106334
30
0
10
20.449251466150116
20
10.24086488930557
30
0
0
SPLINE
5
310
100
AcDbEntity
8
0
100
AcDbSpline
70
0
71
3
72
9
73
5
74
0
42
0.000000001
43
0.0000000001
44
0.0000000001
40
0
40
0
40
0
40
0
40
0.058974906138333602
40
0.11007340332875601
40
0.11007340332875601
40
0.11007340332875601
40
0.11007340332875601
10
20.449251466150116
20
10.24086488930557
30
0
10
20.648453500781223
20
10.233281398452982
30
0
10
21.02025309043086
20
10.219127231843554
30
0
10
21.351441120402782
20
10.051354907093675
30
0
10
21.505185895318817
20
9.9734713002857891
30
0
0
SPLINE
5
311
100
AcDbEntity
8
0
100
AcDbSpline
70
0
71
3
72
9
73
5
74
0
42
0.000000001
43
0.0000000001
44
0.0000000001
40
0
40
0
40
0
40
0
40
0.047559924717796215
40
0.096055555588580255
40
0.096055555588580255
40
0.096055555588580255
40
0.096055555588580255
10
21.505185895318817
20
9.9734713002857891
30
0
10
21.632670616249349
20
9.8747054460847963
30
0
10
21.890148225196331
20
9.6752305929442652
30
0
10
22.020531773246933
20
9.3766180847824412
30
0
10
22.086358600015473
20
9.2258573934254375
30
0
0
SPLINE
5
312
100
AcDbEntity
8
0
100
AcDbSpline
70
0
71
3
72
9
73
5
74
0
42
0.000000001
43
0.0000000001
44
0.0000000001
40
0
40
0
40
0
40
0
40
0.10980040979319504
40
0.21283757534532186
40
0.21283757534532186
40
0.21283757534532186
40
0.21283757534532186
10
22.086358600015473
20
9.2258573934254375
30
0
10
22.326648891718492
20
9.5218121211090914
30
0
10
22.792428602025726
20
10.095492007830966
30
0
10
23.522720542474033
20
10.193444796097948
30
0
10
23.876263432855438
20
10.24086488930557
30
0
0
SPLINE
5
313
100
AcDbEntity
8
0
100
AcDbSpline
70
0
71
3
72
9
73
5
74
0
42
0.000000001
43
0.0000000001
44
0.0000000001
40
0
40
0
40
0
40
0
40
0.077190474693495076
40
0.14395210564582842
40
0.14395210564582842
40
0.14395210564582842
40
0.14395210564582842
10
23.876263432855438
20
10.24086488930557
30
0
10
24.140404670563136
20
10.227410973782716
30
0
10
24.633000259680848
20
10.202320838291437
30
0
10
25.021939294044202
20
9.9024483390571696
30
0
10
25.202320151681732
20
9.7633744641957012
30
0
0
SPLINE
5
314
100
AcDbEntity
8
0
100
AcDbSpline
70
0
71
3
72
9
73
5
74
0
42
0.000000001
43
0.0000000001
44
0.0000000001
40
0
40
0
40
0
40
0
40
0.069911466778101963
40
0.15711148747486584
40
0.15711148747486584
40
0.15711148747486584
40
0.15711148747486584
10
25.202320151681732
20
9.7633744641957012
30
0
10
25.337187600712188
20
9.5676514072934697
30
0
10
25.640274154401148
20
9.1278045263713672
30
0
10
25.656925335023935
20
8.5907706823775225
30
0
10
25.666167073602509
20
8.29270614830825
30
0
0
LINE
5
315
100
AcDbEntity
8
0
100
AcDbLine
10
25.666167073602509
20
8.29270614830825
30
0
11
25.666167073602509
21
4.3145347997364789
31
3.6977854932234928e-31
0
LINE
5
316
100
AcDbEntity
8
0
100
AcDbLine
10
25.666167073602509
20
4.3145347997364789
30
3.6977854932234928e-31
11
24.689359002466034
21
4.314534799736486
31
0
0
LINE
5
317
100
AcDbEntity
8
0
100
AcDbLine
10
24.689359002466034
20
4.314534799736486
30
0
11
24.689359002466034
21
7.9652859136280805
31
-2.4651903288156619e-31
0
SPLINE
5
318
100
AcDbEntity
8
0
100
AcDbSpline
70
0
71
3
72
9
73
5
74
0
42
0.000000001
43
0.0000000001
44
0.0000000001
40
0
40
0
40
0
40
0
40
0.050738504814480868
40
0.085655427835525488
40
0.085655427835525488
40
0.085655427835525488
40
0.085655427835525488
10
24.689359002466034
20
7.9652859136280743
30
0
10
24.689319137851456
20
8.1352366207792617
30
0
10
24.689251839443081
20
8.4221429966216803
30
0
10
24.621485980090839
20
8.7004167625592768
30
0
10
24.593861632699799
20
8.8138533994374004
30
0
0
SPLINE
5
319
100
AcDbEntity
8
0
100
AcDbSpline
70
0
71
3
72
9
73
5
74
0
42
0.000000001
43
0.0000000001
44
0.0000000001
40
0
40
0
40
0
40
0
40
0.026981431184385833
40
0.055030161496626429
40
0.055030161496626429
40
0.055030161496626429
40
0.055030161496626429
10
24.593861632699799
20
8.8138533994374004
30
0
10
24.554763135617669
20
8.896538771160694
30
0
10
24.475019529950444
20
9.0651802834750708
30
0
10
24.324208489150003
20
9.175225191199198
30
0
10
24.247340493554901
20
9.2313147947010723
30
-4.4408920985006262e-15
0
SPLINE
5
320
100
AcDbEntity
8
0
100
AcDbSpline
70
0
71
3
72
9
73
5
74
0
42
0.000000001
43
0.0000000001
44
0.0000000001
40
0
40
0
40
0
40
0
40
0.029754809545674332
40
0.061651900780167669
40
0.061651900780167669
40
0.061651900780167669
40
0.061651900780167669
10
24.247340493554901
20
9.2313147947010723
30
-4.4408920985006262e-15
10
24.158191921803503
20
9.2774564484133997
30
0
10
23.973476274678479
20
9.3730618547306168
30
0
10
23.76555483586074
20
9.3839396316714545
30
0
10
23.657981686944794
20
9.3895675107655254
30
0
0
SPLINE
5
321
100
AcDbEntity
8
0
100
AcDbSpline
70
0
71
3
72
9
73
5
74
0
42
0.000000001
43
0.0000000001
44
0.0000000001
40
0
40
0
40
0
40
0
40
0.056850472363906612
40
0.1116771201006707
40
0.1116771201006707
40
0.1116771201006707
40
0.1116771201006707
10
23.657981686944794
20
9.3895675107655254
30
0
10
23.46416327922887
20
9.3738893740615339
30
0
10
23.083426221185462
20
9.3430912279276015
30
0
10
22.788007794469092
20
9.1015854904730755
30
0
10
22.642975383157562
20
8.9830209180531231
30
0
0
SPLINE
5
322
100
AcDbEntity
8
0
100
AcDbSpline
70
0
71
3
72
9
73
5
74
0
42
0.000000001
43
0.0000000001
44
0.0000000001
40
0
40
0
40
0
40
0
40
0.060926072975970649
40
0.13886770382552371
40
0.13886770382552371
40
0.13886770382552371
40
0.13886770382552371
10
22.642975383157562
20
8.9830209180531231
30
0
10
22.525644420207279
20
8.8123232953006205
30
0
10
22.258214063765791
20
8.4232552697040255
30
-4.4408920985006262e-15
10
22.246006685418273
20
7.948169373924058
30
0
10
22.239155106897186
20
7.6815201207813946
30
0
0
LINE
5
323
100
AcDbEntity
8
0
100
AcDbLine
10
22.239155106897186
20
7.6815201207813955
30
5.6677968889860799e-31
11
22.239155106897186
21
4.3145347997364789
31
-3.6977854932234928e-31
0
LINE
5
324
100
AcDbEntity
8
0
100
AcDbLine
10
22.239155106897186
20
4.3145347997364789
30
-3.6977854932234928e-31
11
21.256890826577973
21
4.314534799736486
31
0
0
LINE
5
325
100
AcDbEntity
8
0
100
AcDbLine
10
21.256890826577973
20
4.314534799736486
30
0
11
21.256890826577973
21
8.0798818036732474
31
2.4651903288156619e-31
0
SPLINE
5
326
100
AcDbEntity
8
0
100
AcDbSpline
70
0
71
3
72
9
73
5
74
0
42
0.000000001
43
0.0000000001
44
0.0000000001
40
0
40
0
40
0
40
0
40
0.057612461965879692
40
0.10232676436830573
40
0.10232676436830573
40
0.10232676436830573
40
0.10232676436830573
10
21.256890826577973
20
8.0798818036732403
30
0
10
21.253022136689733
20
8.2751621643619035
30
0
10
21.246150871253391
20
8.6220039199838308
30
0
10
21.086531594075304
20
8.9283023335984417
30
0
10
21.01678185975058
20
9.0621472760853496
30
0
0
SPLINE
5
327
100
AcDbEntity
8
0
100
AcDbSpline
70
0
71
3
72
9
73
5
74
0
42
0.000000001
43
0.0000000001
44
0.0000000001
40
0
40
0
40
0
40
0
40
0.040059959926541322
40
0.087698872933081595
40
0.087698872933081595
40
0.087698872933081595
40
0.087698872933081595
10
21.01678185975058
20
9.0621472760853496
30
0
10
20.917227733081219
20
9.1574578417888866
30
0
10
20.699284811501911
20
9.3661108011563545
30
0
10
20.395816675119125
20
9.3813107468415939
30
0
10
20.230969720239472
20
9.3895675107655254
30
0
0
SPLINE
5
328
100
AcDbEntity
8
0
100
AcDbSpline
70
0
71
3
72
9
73
5
74
0
42
0.000000001
43
0.0000000001
44
0.0000000001
40
0
40
0
40
0
40
0
40
0.040275895625067178
40
0.080522602465240872
40
0.080522602465240872
40
0.080522602465240872
40
0.080522602465240872
10
20.230969720239472
20
9.3895675107655254
30
0
10
20.095361327476738
20
9.3804848376615304
30
0
10
19.824242820193007
20
9.362326073856936
30
0
10
19.584223467113578
20
9.2349520666341025
30
0
10
19.464257293100189
20
9.1712881490406719
30
0
0
SPLINE
5
329
100
AcDbEntity
8
0
100
AcDbSpline
70
0
71
3
72
9
73
5
74
0
42
0.000000001
43
0.0000000001
44
0.0000000001
40
0
40
0
40
0
40
0
40
0.04054266878191156
40
0.082899327629501793
40
0.082899327629501793
40
0.082899327629501793
40
0.082899327629501793
10
19.464257293100189
20
9.1712881490406719
30
0
10
19.354458647404854
20
9.0886408687975333
30
0
10
19.129948663818517
20
8.9196484425855687
30
0
10
19.013515770413562
20
8.6636269648724245
30
0
10
18.954025440568756
20
8.5328151151356426
30
0
0
LWPOLYLINE
5
330
100
AcDbEntity
8
0
100
AcDbPolyline
90
12
70
1
43
0.0
10
14.285539322252108
20
32.058053152245009
10
15.595225625390841
20
33.334996835869276
10
18.443793588037323
20
29.285884039085825
10
19.840791755075287
20
29.285884039085829
10
16.33738093888266
20
34.044410125893073
10
19.693452649469208
20
37.285884158295111
10
18.258253865594696
20
37.285884158295119
10
14.285539322252108
20
33.318625824135268
10
14.285539322252108
20
37.285884158295111
10
13.226876490468813
20
37.285884158295111
10
13.226876490468813
20
29.285884039085825
10
14.285539322252108
20
29.285884039085825
0
SPLINE
5
331
100
AcDbEntity
8
0
100
AcDbSpline
70
0
71
3
72
9
73
5
74
0
42
0.000000001
43
0.0000000001
44
0.0000000001
40
0
40
0
40
0
40
0
40
0.066533296568065045
40
0.13430723583783769
40
0.13430723583783769
40
0.13430723583783769
40
0.13430723583783769
10
28.042700820321869
20
30.470058457535227
30
0
10
28.215695467040796
20
30.322040206529781
30
0
10
28.564910582089141
20
30.023243616378036
30
0
10
29.022999988254337
20
29.982908937710725
30
0
10
29.254160457010101
20
29.962555305641612
30
0
0
SPLINE
5
332
100
AcDbEntity
8
0
100
AcDbSpline
70
0
71
3
72
9
73
5
74
0
42
0.000000001
43
0.0000000001
44
0.0000000001
40
0
40
0
40
0
40
0
40
0.050568226553816271
40
0.097791590661073347
40
0.097791590661073347
40
0.097791590661073347
40
0.097791590661073347
10
29.254160457010101
20
29.962555305641612
30
0
10
29.425300076400809
20
29.972675347079729
30
0
10
29.756259193338334
20
29.992246034391382
30
0
10
30.039582853361097
20
30.16358247632397
30
0
10
30.17639928376181
20
30.246320502441844
30
0
0
SPLINE
5
333
100
AcDbEntity
8
0
100
AcDbSpline
70
0
71
3
72
9
73
5
74
0
42
0.000000001
43
0.0000000001
44
0.0000000001
40
0
40
0
40
0
40
0
40
0.050292815036648335
40
0.11014703095775416
40
0.11014703095775416
40
0.11014703095775416
40
0.11014703095775416
10
30.17639928376181
20
30.246320502441844
30
0
10
30.299763515620771
20
30.362764204191677
30
0
10
30.569945326993768
20
30.617789261192932
30
0
10
30.707422445365577
20
30.964035383011662
30
0
10
30.782127910013031
20
31.1521865293202
30
0
0
LINE
5
334
100
AcDbEntity
8
0
100
AcDbLine
10
30.782127910013031
20
31.1521865293202
30
0
11
31.797135405893158
21
31.026675240677317
31
0
0
SPLINE
5
335
100
AcDbEntity
8
0
100
AcDbSpline
70
0
71
3
72
9
73
5
74
0
42
0.000000001
43
0.0000000001
44
0.0000000001
40
0
40
0
40
0
40
0
40
0.08609340063374539
40
0.16660647227996433
40
0.16660647227996433
40
0.16660647227996433
40
0.16660647227996433
10
31.797135405893158
20
31.026675240677317
30
0
10
31.703881350976246
20
30.749745788537361
30
0
10
31.523417703343071
20
30.213836662497148
30
0
10
31.108263231758254
20
29.831036704073352
30
-4.4408920985006262e-15
10
30.907638602609467
20
29.646047489326914
30
0
0
SPLINE
5
336
100
AcDbEntity
8
0
100
AcDbSpline
70
0
71
3
72
9
73
5
74
0
42
0.000000001
43
0.0000000001
44
0.0000000001
40
0
40
0
40
0
40
0
40
0.08260945648997145
40
0.17537649751372386
40
0.17537649751372386
40
0.17537649751372386
40
0.17537649751372386
10
30.907638602609467
20
29.646047489326914
30
0
10
30.667396512263608
20
29.502930710923131
30
0
10
30.1573723800343
20
29.199099643653618
30
0
10
29.563066642282596
20
29.170201754404268
30
0
10
29.248703055734467
20
29.154915945213755
30
0
0
SPLINE
5
337
100
AcDbEntity
8
0
100
AcDbSpline
70
0
71
3
72
9
73
5
74
0
42
0.000000001
43
0.0000000001
44
0.0000000001
40
0
40
0
40
0
40
0
40
0.11565261833560404
40
0.22116318144354402
40
0.22116318144354402
40
0.22116318144354402
40
0.22116318144354402
10
29.248703055734467
20
29.154915945213755
30
0
10
28.853152834375322
20
29.181127611042722
30
0
10
28.096739822413671
20
29.231252333587683
30
0
10
27.511522861030208
20
29.709730622546463
30
0
10
27.232332759256195
20
29.937998788040598
30
0
0
SPLINE
5
338
100
AcDbEntity
8
0
100
AcDbSpline
70
0
71
3
72
9
73
5
74
0
42
0.000000001
43
0.0000000001
44
0.0000000001
40
0
40
0
40
0
40
0
40
0.1094045984902849
40
0.23635758244460686
40
0.23635758244460686
40
0.23635758244460686
40
0.23635758244460686
10
27.232332759256195
20
29.937998788040598
30
0
10
27.015393159405185
20
30.240629808844567
30
-4.4408920985006262e-15
10
26.546717070238426
20
30.894433556008998
30
0
10
26.508159099910639
20
31.701147283173107
30
0
10
26.487448745126557
20
32.134451405685866
30
0
0
SPLINE
5
339
100
AcDbEntity
8
0
100
AcDbSpline
70
0
71
3
72
9
73
5
74
0
42
0.000000001
43
0.0000000001
44
0.0000000001
40
0
40
0
40
0
40
0
40
0.13123465659872641
40
0.24359676866530186
40
0.24359676866530186
40
0.24359676866530186
40
0.24359676866530186
10
26.487448745126557
20
32.134451405685866
30
0
10
26.507877610402812
20
32.582125310221983
30
0
10
26.545797514319737
20
33.413094197459017
30
0
10
27.021222863639558
20
34.091603236317525
30
0
10
27.240518861169647
20
34.404574172180617
30
0
0
SPLINE
5
340
100
AcDbEntity
8
0
100
AcDbSpline
70
0
71
3
72
9
73
5
74
0
42
0.000000001
43
0.0000000001
44
0.0000000001
40
0
40
0
40
0
40
0
40
0.10559484918137427
40
0.21631901648036195
40
0.21631901648036195
40
0.21631901648036195
40
0.21631901648036195
10
27.240518861169647
20
34.404574172180617
30
0
10
27.514732073820547
20
34.640098787967958
30
0
10
28.076478531402721
20
35.122588735527074
30
0
10
28.815738980522291
20
35.181870438539605
30
0
10
29.194133811349701
20
35.212214128654921
30
0
0
SPLINE
5
341
100
AcDbEntity
8
0
100
AcDbSpline
70
0
71
3
72
9
73
5
74
0
42
0.000000001
43
0.0000000001
44
0.0000000001
40
0
40
0
40
0
40
0
40
0.10743040159478247
40
0.21053324936786455
40
0.21053324936786455
40
0.21053324936786455
40
0.21053324936786455
10
29.194133811349701
20
35.212214128654921
30
0
10
29.561202252572158
20
35.182040782332763
30
0
10
30.280552739247739
20
35.122909544329353
30
0
10
30.826040668278981
20
34.651704733767858
30
-4.4408920985006262e-15
10
31.093178325052094
20
34.420945183914625
30
0
0
SPLINE
5
342
100
AcDbEntity
8
0
100
AcDbSpline
70
0
71
3
72
9
73
5
74
0
42
0.000000001
43
0.0000000001
44
0.0000000001
40
0
40
0
40
0
40
0
40
0.1100937646739145
40
0.23883945395661604
40
0.23883945395661604
40
0.23883945395661604
40
0.23883945395661604
10
31.093178325052094
20
34.420945183914625
30
0
10
31.307701200381661
20
34.114081233179689
30
0
10
31.773091102858643
20
33.448364889937352
30
0
10
31.809986624959777
20
32.633648868354015
30
0
10
31.829875045175385
20
32.194478647392714
30
0
0
SPLINE
5
343
100
AcDbEntity
8
0
100
AcDbSpline
70
0
71
3
72
9
73
5
74
0
42
0.000000001
43
0.0000000001
44
0.0000000001
40
0
40
0
40
0
40
0
40
0.010914939292165325
40
0.026200066359577792
40
0.026200066359577792
40
0.026200066359577792
40
0.026200066359577792
10
31.829875045175385
20
32.194478647392714
30
0
10
31.829528621569409
20
32.158096232704011
30
0
10
31.828697071230707
20
32.070764397532933
30
0
10
31.825995895100885
20
31.983469271762193
30
0
10
31.824420028085541
20
31.932541267555674
30
0
0
LINE
5
344
100
AcDbEntity
8
0
100
AcDbLine
10
31.824420028085541
20
31.932541267555678
30
0
11
27.502455048913788
21
31.932541267555674
31
0
0
SPLINE
5
345
100
AcDbEntity
8
0
100
AcDbSpline
70
0
71
3
72
9
73
5
74
0
42
0.000000001
43
0.0000000001
44
0.0000000001
40
0
40
0
40
0
40
0
40
0.085859883607514356
40
0.15841536565756253
40
0.15841536565756253
40
0.15841536565756253
40
0.15841536565756253
10
27.502455048913788
20
31.932541267555674
30
0
10
27.530839611109531
20
31.641552936369557
30
0
10
27.583210411189143
20
31.10466631423467
30
0
10
27.898359885251995
20
30.669409498640917
30
0
10
28.042700820321869
20
30.470058457535227
30
0
0
LWPOLYLINE
5
346
100
AcDbEntity
8
0
100
AcDbPolyline
90
12
70
1
43
0.0
10
16.47653573071463
20
5.258600847404943
10
11.565212540979219
20
5.258600847404943
10
11.565212540979219
20
7.9816557332691875
10
15.990860395784212
20
7.9816557332691884
10
15.990860395784212
20
8.9202643796620098
10
11.565212540979219
20
8.920264379662008
10
11.565212540979219
20
11.370468275230859
10
16.290996604318451
20
11.370468275230859
10
16.290996604318451
20
12.314534322899316
10
10.506549411172701
20
12.314534322899323
10
10.506549411172701
20
4.314534799736486
10
16.47653573071463
20
4.314534799736486
0
SPLINE
5
347
100
AcDbEntity
8
0
100
AcDbSpline
70
0
71
3
72
9
73
5
74
0
42
0.000000001
43
0.0000000001
44
0.0000000001
40
0
40
0
40
0
40
0
40
0.050607845071792355
40
0.093822278003908688
40
0.093822278003908688
40
0.093822278003908688
40
0.093822278003908688
10
38.441064887399506
20
2.9011656209645134
30
0
10
38.355730459406729
20
2.7537030356498695
30
0
10
38.197528298949486
20
2.4803210006128209
30
0
10
37.95328968571139
20
2.2808840565096835
30
0
10
37.84079366242392
20
2.1890236303028923
30
0
0
SPLINE
5
348
100
AcDbEntity
8
0
100
AcDbSpline
70
0
71
3
72
9
73
5
74
0
42
0.000000001
43
0.0000000001
44
0.0000000001
40
0
40
0
40
0
40
0
40
0.04081038736077517
40
0.084832336036265957
40
0.084832336036265957
40
0.084832336036265957
40
0.084832336036265957
10
37.84079366242392
20
2.1890236303028923
30
0
10
37.719797330859627
20
2.1229972077123085
30
0
10
37.468282897348438
20
1.9857484328118946
30
0
10
37.181809857770666
20
1.970480135114191
30
0
10
37.033150725717377
20
1.9625569745716909
30
0
0
SPLINE
5
349
100
AcDbEntity
8
0
100
AcDbSpline
70
0
71
3
72
9
73
5
74
0
42
0.000000001
43
0.0000000001
44
0.0000000001
40
0
40
0
40
0
40
0
40
0.030163478751401566
40
0.064647523049997407
40
0.064647523049997407
40
0.064647523049997407
40
0.064647523049997407
10
37.033150725717377
20
1.9625569745716909
30
0
10
36.932407403886522
20
1.9687702111103789
30
0
10
36.716490457639381
20
1.9820866576535667
30
0
10
36.510182908300337
20
2.0476419843220386
30
0
10
36.400135093087982
20
2.0826102658924919
30
0
0
LINE
5
350
100
AcDbEntity
8
0
100
AcDbLine
10
36.400135093087982
20
2.0826102658924919
30
0
11
36.290996604318451
21
3.0048490926442
31
0
0
SPLINE
5
351
100
AcDbEntity
8
0
100
AcDbSpline
70
0
71
3
72
9
73
5
74
0
42
0.000000001
43
0.0000000001
44
0.0000000001
40
0
40
0
40
0
40
0
40
0.030852881317626552
40
0.057001404171563394
40
0.057001404171563394
40
0.057001404171563394
40
0.057001404171563394
10
36.290996604318451
20
3.0048490926442009
30
0
10
36.390959419179239
20
2.9794372606542909
30
0
10
36.575643006859323
20
2.9324883196110187
30
0
10
36.765825220926629
20
2.9222377381588762
30
-4.4408920985006262e-15
10
36.853068404550385
20
2.9175354406056266
30
0
0
SPLINE
5
352
100
AcDbEntity
8
0
100
AcDbSpline
70
0
71
3
72
9
73
5
74
0
42
0.000000001
43
0.0000000001
44
0.0000000001
40
0
40
0
40
0
40
0
40
0.029594342206667162
40
0.053931640891442284
40
0.053931640891442284
40
0.053931640891442284
40
0.053931640891442284
10
36.853068404550385
20
2.9175354406056266
30
0
10
36.952757638637351
20
2.9200223008976502
30
0
10
37.13442763271852
20
2.9245542636383606
30
0
10
37.301535928929567
20
2.9949220206738216
30
0
10
37.376945548410248
20
3.0266763135609489
30
0
0
SPLINE
5
353
100
AcDbEntity
8
0
100
AcDbSpline
70
0
71
3
72
9
73
5
74
0
42
0.000000001
43
0.0000000001
44
0.0000000001
40
0
40
0
40
0
40
0
40
0.022156932947797279
40
0.044743093662409167
40
0.044743093662409167
40
0.044743093662409167
40
0.044743093662409167
10
37.376945548410248
20
3.0266763135609489
30
0
10
37.439670718619467
20
3.0670030715354182
30
0
10
37.566336181401425
20
3.148437804104435
30
0
10
37.654437514334049
20
3.2706015074996211
30
0
10
37.69891076600058
20
3.3322693273243766
30
0
0
SPLINE
5
354
100
AcDbEntity
8
0
100
AcDbSpline
70
0
71
3
72
9
73
5
74
0
42
0.000000001
43
0.0000000001
44
0.0000000001
40
0
40
0
40
0
40
0
40
0.028376974614653494
40
0.079105372683872882
40
0.079105372683872882
40
0.079105372683872882
40
0.079105372683872882
10
37.69891076600058
20
3.3322693273243766
30
0
10
37.740666186849239
20
3.4172192691333327
30
0
10
37.857066126330444
20
3.6540308707055837
30
0
10
37.943572130858819
20
3.9035197398037704
30
0
10
37.999046378488373
20
4.0635110303578239
30
0
0
SPLINE
5
355
100
AcDbEntity
8
0
100
AcDbSpline
70
0
71
3
72
9
73
5
74
0
42
0.000000001
43
0.0000000001
44
0.0000000001
40
0
40
0
40
0
40
0
40
0.010700412114220931
40
0.025550256406495882
40
0.025550256406495882
40
0.025550256406495882
40
0.025550256406495882
10
37.999046378488373
20
4.0635110303578239
30
0
10
38.010738855312141
20
4.0972098142626914
30
0
10
38.038657946435492
20
4.1776751795369806
30
0
10
38.068826199944276
20
4.2573265251604733
30
0
10
38.086360030526947
20
4.3036199971852165
30
0
0
LINE
5
356
100
AcDbEntity
8
0
100
AcDbLine
10
38.086360030526954
20
4.3036199971852165
30
0
11
35.887177520150971
21
10.109896795433503
31
0
0
LINE
5
357
100
AcDbEntity
8
0
100
AcDbLine
10
35.887177520150971
20
10.109896795433503
30
0
11
36.945837073678803
21
10.1098967954335
31
0
0
LINE
5
358
100
AcDbEntity
8
0
100
AcDbLine
10
36.945837073678803
20
10.1098967954335
30
0
11
38.151844077462982
21
6.7538262769398454
31
0
0
SPLINE
5
359
100
AcDbEntity
8
0
100
AcDbSpline
70
0
71
3
72
9
73
5
74
0
42
0.000000001
43
0.0000000001
44
0.0000000001
40
0
40
0
40
0
40
0
40
0.069157215125462357
40
0.1407046882775663
40
0.1407046882775663
40
0.1407046882775663
40
0.1407046882775663
10
38.151844077462982
20
6.7538262769398418
30
0
10
38.228521439608592
20
6.5363447687931977
30
0
10
38.384526338288666
20
6.0938650108331318
30
0
10
38.508826904055226
20
5.6414476316170861
30
0
10
38.572032981271576
20
5.4113961621937614
30
0
0
SPLINE
5
360
100
AcDbEntity
8
0
100
AcDbSpline
70
0
71
3
72
9
73
5
74
0
42
0.000000001
43
0.0000000001
44
0.0000000001
40
0
40
0
40
0
40
0
40
0.069375537420211741
40
0.13814336011250442
40
0.13814336011250442
40
0.13814336011250442
40
0.13814336011250442
10
38.572032981271576
20
5.4113961621937614
30
0
10
38.630976599016833
20
5.6351123512564074
30
-4.4408920985006262e-15
10
38.748347501143272
20
6.0805850238713157
30
0
10
38.900239943720436
20
6.5154972052556328
30
0
10
38.975852065439057
20
6.7319966718373028
30
0
0
LINE
5
361
100
AcDbEntity
8
0
100
AcDbLine
10
38.975852065439057
20
6.7319966718373028
30
4.1225327905181505e-31
11
40.214598708505463
21
10.109896795433498
31
0
0
LINE
5
362
100
AcDbEntity
8
0
100
AcDbLine
10
40.214598708505463
20
10.109896795433498
30
0
11
41.196864180917572
21
10.1098967954335
31
0
0
LINE
5
363
100
AcDbEntity
8
0
100
AcDbLine
10
41.196864180917572
20
10.1098967954335
30
0
11
38.99222188508017
21
4.2163087293324288
31
-1.9721522630525295e-30
0
SPLINE
5
364
100
AcDbEntity
8
0
100
AcDbSpline
70
0
71
3
72
9
73
5
74
0
42
0.000000001
43
0.0000000001
44
0.0000000001
40
0
40
0
40
0
40
0
40
0.086567693310824159
40
0.1426612003117681
40
0.1426612003117681
40
0.1426612003117681
40
0.1426612003117681
10
38.99222188508017
20
4.2163087293324333
30
0
10
38.892139830926112
20
3.9454303978922125
30
0
10
38.727207332100939
20
3.4990302869067316
30
0
10
38.52182138087904
20
3.069897855174605
30
0
10
38.441064887399506
20
2.9011656209645134
30
0
0
LWPOLYLINE
5
365
100
AcDbEntity
8
0
100
AcDbPolyline
90
76
70
1
43
0.0
10
2.4999999999998836
20
41.490331491712652
10
-1.1653729062538368e-13
20
41.490331491712652
10
-1.1657341758564144e-13
20
46.490331491712652
10
2.6999999999998838
20
46.490331491712652
10
2.6999999999998838
20
43.990331491712652
10
7.2999999999998835
20
43.990331491712652
10
7.2999999999998844
20
46.490331491712652
10
12.699999999999886
20
46.490331491712652
10
12.699999999999886
20
43.990331491712652
10
17.299999999999883
20
43.990331491712652
10
17.299999999999883
20
46.490331491712652
10
22.699999999999886
20
46.490331491712652
10
22.699999999999886
20
43.990331491712652
10
27.299999999999883
20
43.990331491712652
10
27.299999999999883
20
46.490331491712652
10
32.699999999999882
20
46.490331491712652
10
32.699999999999882
20
43.990331491712652
10
37.299999999999883
20
43.990331491712652
10
37.299999999999883
20
46.490331491712652
10
42.699999999999882
20
46.490331491712652
10
42.699999999999882
20
43.990331491712652
10
47.299999999999891
20
43.990331491712652
10
47.299999999999891
20
46.490331491712652
10
49.999999999999886
20
46.490331491712652
10
49.999999999999886
20
41.490331491712652
10
47.499999999999886
20
41.490331491712652
10
47.499999999999886
20
36.490331491712652
10
49.999999999999886
20
36.490331491712652
10
49.999999999999886
20
31.490331491712652
10
47.499999999999886
20
31.490331491712652
10
47.499999999999886
20
26.490331491712659
10
49.999999999999886
20
26.490331491712652
10
49.999999999999886
20
21.490331491712659
10
47.499999999999886
20
21.490331491712659
10
47.499999999999886
20
16.490331491712663
10
49.999999999999886
20
16.490331491712659
10
49.999999999999886
20
11.490331491712663
10
47.499999999999886
20
11.490331491712663
10
47.499999999999886
20
6.4903314917126655
10
49.999999999999886
20
6.4903314917126682
10
49.999999999999886
20
-3.5096685082873256
10
47.499999999999886
20
-3.5096685082873242
10
47.499999999999886
20
-1.0096685082873256
10
42.499999999999886
20
-1.0096685082873271
10
42.499999999999886
20
-3.5096685082873256
10
37.499999999999886
20
-3.5096685082873242
10
37.499999999999886
20
-1.0096685082873256
10
32.499999999999886
20
-1.0096685082873271
10
32.499999999999886
20
-3.5096685082873256
10
27.499999999999886
20
-3.5096685082873242
10
27.499999999999886
20
-1.0096685082873256
10
22.499999999999886
20
-1.0096685082873271
10
22.499999999999886
20
-3.5096685082873256
10
17.499999999999886
20
-3.5096685082873242
10
17.499999999999886
20
-1.0096685082873256
10
12.499999999999885
20
-1.0096685082873271
10
12.499999999999885
20
-3.5096685082873256
10
7.4999999999998836
20
-3.5096685082873242
10
7.4999999999998836
20
-1.0096685082873256
10
2.4999999999998836
20
-1.0096685082873271
10
2.4999999999998836
20
-3.5096685082873256
10
-1.1653729062538343e-13
20
-3.5096685082873291
10
-1.1657341758564144e-13
20
6.4903314917126655
10
2.4999999999998828
20
6.4903314917126647
10
2.4999999999998836
20
11.490331491712663
10
-1.165372906253835e-13
20
11.490331491712665
10
-1.1657341758564144e-13
20
16.490331491712663
10
2.4999999999998828
20
16.490331491712659
10
2.4999999999998836
20
21.490331491712659
10
-1.1653729062538355e-13
20
21.490331491712663
10
-1.1657341758564144e-13
20
26.490331491712659
10
2.4999999999998828
20
26.490331491712659
10
2.4999999999998836
20
31.490331491712652
10
-1.1653729062538363e-13
20
31.490331491712652
10
-1.1657341758564144e-13
20
36.490331491712652
10
2.4999999999998828
20
36.490331491712652
0
SPLINE
5
366
100
AcDbEntity
8
0
100
AcDbSpline
70
0
71
3
72
9
73
5
74
0
42
0.000000001
43
0.0000000001
44
0.0000000001
40
0
40
0
40
0
40
0
40
0.042586941297408025
40
0.083248659988676962
40
0.083248659988676962
40
0.083248659988676962
40
0.083248659988676962
10
34.65389066254599
20
29.36228288857313
30
0
10
34.530648174511107
20
29.434680075789355
30
0
10
34.289734606407563
20
29.576201599502696
30
0
10
34.103601846838401
20
29.784443849814476
30
0
10
34.012687735910248
20
29.886157052200755
30
0
0
LINE
5
367
100
AcDbEntity
8
0
100
AcDbLine
10
34.012687735910248
20
29.886157052200755
30
0
11
34.012687735910248
21
27.064874307793101
31
3.6977854932234928e-31
0
LINE
5
368
100
AcDbEntity
8
0
100
AcDbLine
10
34.012687735910248
20
27.064874307793101
30
3.6977854932234928e-31
11
33.030422263498139
21
27.064874307793101
31
0
0
LINE
5
369
100
AcDbEntity
8
0
100
AcDbLine
10
33.030422263498139
20
27.064874307793101
30
0
11
33.030422263498139
21
35.081245438736396
31
2.4651903288156619e-31
0
LINE
5
370
100
AcDbEntity
8
0
100
AcDbLine
10
33.030422263498139
20
35.081245438736396
30
2.4651903288156619e-31
11
33.925374083871674
21
35.081245438736403
31
0
0
LINE
5
371
100
AcDbEntity
8
0
100
AcDbLine
10
33.925374083871674
20
35.081245438736403
30
0
11
33.925374083871674
21
34.32817591873976
31
-3.0814879110195774e-32
0
SPLINE
5
372
100
AcDbEntity
8
0
100
AcDbSpline
70
0
71
3
72
9
73
5
74
0
42
0.000000001
43
0.0000000001
44
0.0000000001
40
0
40
0
40
0
40
0
40
0.051297154232500121
40
0.098108404781922731
40
0.098108404781922731
40
0.098108404781922731
40
0.098108404781922731
10
33.925374083871674
20
34.32817591873976
30
4.4408920985006262e-15
10
34.030976290427255
20
34.464420967836816
30
0
10
34.23294585738725
20
34.724996522686567
30
0
10
34.508683457403009
20
34.905215128435138
30
0
10
34.640248351449799
20
34.991204278152907
30
0
0
SPLINE
5
373
100
AcDbEntity
8
0
100
AcDbSpline
70
0
71
3
72
9
73
5
74
0
42
0.000000001
43
0.0000000001
44
0.0000000001
40
0
40
0
40
0
40
0
40
0.047079727337885069
40
0.099893391733801629
40
0.099893391733801629
40
0.099893391733801629
40
0.099893391733801629
10
34.640248351449799
20
34.991204278152907
30
0
10
34.784967526645445
20
35.055608168083729
30
0
10
35.09203152375526
20
35.192259830483295
30
0
10
35.428335322539418
20
35.205312943905497
30
0
10
35.606139235849213
20
35.212214128654921
30
0
0
SPLINE
5
374
100
AcDbEntity
8
0
100
AcDbSpline
70
0
71
3
72
9
73
5
74
0
42
0.000000001
43
0.0000000001
44
0.0000000001
40
0
40
0
40
0
40
0
40
0.070499527170544238
40
0.13799989960515166
40
0.13799989960515166
40
0.13799989960515166
40
0.13799989960515166
10
35.606139235849213
20
35.212214128654921
30
0
10
35.844093339210033
20
35.197727548628286
30
0
10
36.309878624478543
20
35.169370669234475
30
0
10
36.716790645976111
20
34.941621843331347
30
0
10
36.915824942941498
20
34.830222265404188
30
-4.4408920985006262e-15
0
SPLINE
5
375
100
AcDbEntity
8
0
100
AcDbSpline
70
0
71
3
72
9
73
5
74
0
42
0.000000001
43
0.0000000001
44
0.0000000001
40
0
40
0
40
0
40
0
40
0.067820329203293367
40
0.13922259608295504
40
0.13922259608295504
40
0.13922259608295504
40
0.13922259608295504
10
36.915824942941498
20
34.830222265404188
30
-4.4408920985006262e-15
10
37.094568859579965
20
34.686966973261676
30
0
10
37.461497071235328
20
34.392890345958413
30
0
10
37.667120480549507
20
33.969566838844933
30
0
10
37.772577338571381
20
33.752459423225844
30
0
0
SPLINE
5
376
100
AcDbEntity
8
0
100
AcDbSpline
70
0
71
3
72
9
73
5
74
0
42
0.000000001
43
0.0000000001
44
0.0000000001
40
0
40
0
40
0
40
0
40
0.076077499132912313
40
0.15600960998739877
40
0.15600960998739877
40
0.15600960998739877
40
0.15600960998739877
10
37.772577338571381
20
33.752459423225844
30
0
10
37.856919853779793
20
33.511707606483952
30
0
10
38.029878258735124
20
33.018005822622229
30
0
10
38.050987511682472
20
32.495122109347903
30
0
10
38.061802916879486
20
32.227220670860731
30
0
0
SPLINE
5
377
100
AcDbEntity
8
0
100
AcDbSpline
70
0
71
3
72
9
73
5
74
0
42
0.000000001
43
0.0000000001
44
0.0000000001
40
0
40
0
40
0
40
0
40
0.084891632488500901
40
0.16423823741877119
40
0.16423823741877119
40
0.16423823741877119
40
0.16423823741877119
10
38.061802916879486
20
32.227220670860731
30
0
10
38.050391243449738
20
31.942416980689188
30
0
10
38.028313294479268
20
31.391412662442974
30
0
10
37.835646289242781
20
30.875048821892534
30
0
10
37.742565207834076
20
30.625583665054759
30
0
0
SPLINE
5
378
100
AcDbEntity
8
0
100
AcDbSpline
70
0
71
3
72
9
73
5
74
0
42
0.000000001
43
0.0000000001
44
0.0000000001
40
0
40
0
40
0
40
0
40
0.074084375228980925
40
0.14489048427523976
40
0.14489048427523976
40
0.14489048427523976
40
0.14489048427523976
10
37.742565207834076
20
30.625583665054759
30
0
10
37.626489858572356
20
30.403583737665212
30
0
10
37.399475545298245
20
29.969407477298276
30
0
10
37.006776119311958
20
29.677049890127073
30
0
10
36.814868979806732
20
29.534178511780222
30
0
0
SPLINE
5
379
100
AcDbEntity
8
0
100
AcDbSpline
70
0
71
3
72
9
73
5
74
0
42
0.000000001
43
0.0000000001
44
0.0000000001
40
0
40
0
40
0
40
0
40
0.068590738679323845
40
0.13482513490961007
40
0.13482513490961007
40
0.13482513490961007
40
0.13482513490961007
10
36.814868979806732
20
29.534178511780222
30
0
10
36.611457872589298
20
29.423570013228609
30
0
10
36.211623572787957
20
29.206152822125134
30
0
10
35.758032162452793
20
29.171794745177678
30
0
10
35.535200171823334
20
29.154915945213755
30
0
0
SPLINE
5
380
100
AcDbEntity
8
0
100
AcDbSpline
70
0
71
3
72
9
73
5
74
0
42
0.000000001
43
0.0000000001
44
0.0000000001
40
0
40
0
40
0
40
0
40
0.046876918371258791
40
0.091234369496544399
40
0.091234369496544399
40
0.091234369496544399
40
0.091234369496544399
10
35.535200171823334
20
29.154915945213755
30
0
10
35.377600166862059
20
29.162561159132462
30
0
10
35.070870595361257
20
29.177440683976986
30
0
10
34.79030130225312
20
29.301813687564824
30
0
10
34.65389066254599
20
29.36228288857313
30
0
0
ENDSEC
0
SECTION
2
OBJECTS
0
DICTIONARY
5
C
100
AcDbDictionary
3
ACAD_GROUP
350
D
3
ACAD_MLINESTYLE
350
17
0
DICTIONARY
5
D
100
AcDbDictionary
0
DICTIONARY
5
1A
330
C
100
AcDbDictionary
0
DICTIONARY
5
17
100
AcDbDictionary
0
ENDSEC
0
EOF
